<?xml version="1.0" encoding="UTF-8"?>
<svg id="Layer_1" data-name="Layer 1" xmlns="http://www.w3.org/2000/svg" viewBox="0 0 950 950">
  <defs>
    <style>
      .cls-1, .cls-2 {
        fill: #fbec00;
      }

      .cls-3 {
        fill: #00974a;
      }

      .cls-3, .cls-4, .cls-5, .cls-6, .cls-7, .cls-8, .cls-2 {
        fill-rule: evenodd;
      }

      .cls-4 {
        fill: #009bd8;
      }

      .cls-5 {
        fill: #fff;
      }

      .cls-6 {
        fill: #102125;
      }

      .cls-7 {
        fill: #1d0f0e;
      }

      .cls-9 {
        fill: #e4d71b;
      }

      .cls-8 {
        fill: #010508;
      }
    </style>
  </defs>
  <path class="cls-4" d="m474.96,945c-70.32-28.63-140.63-57.27-210.95-85.9-120.19-177.62-160.15-396.84-133.62-650.54,49.41-7.28,74.39-47.95,85.67-107.34,46.66-27.07,93.31-54.14,139.97-81.21,91.74-19.2,147.02-18.92,237.87,0,46.66,27.07,93.31,54.14,139.96,81.21,11.28,59.39,36.27,100.05,85.67,107.34,26.53,253.7-13.42,472.92-133.62,650.54-70.32,28.63-140.63,57.26-210.95,85.9Z"/>
  <path class="cls-8" d="m142.68,215.72c51.3-12.88,73.13-60.32,83.19-107.97l.26-1.23,1.09-.63c44.16-25.63,88.33-51.25,132.49-76.88l.4-.23.45-.09c38.22-7.92,76.73-13.73,115.85-13.59,38.13.14,75.7,5.91,112.96,13.59l.45.09.4.23c44.16,25.63,88.32,51.25,132.49,76.87l1.09.63.26,1.23c10.06,47.64,31.89,95.09,83.19,107.97l1.93.48.19,1.98c21.51,220.09-5.14,441.77-130.4,629.15l-.48.72-.8.32c-67.22,27.37-134.43,54.74-201.65,82.11l-1.06.43-1.06-.43c-67.22-27.37-134.43-54.74-201.65-82.11l-.8-.32-.48-.72c-125.26-187.38-151.92-409.07-130.4-629.15l.19-1.98,1.93-.48Z"/>
  <path class="cls-5" d="m474.96,927.88c67.22-27.37,134.43-54.74,201.65-82.11,124.84-186.75,151.4-407.71,129.94-627.31-51.87-13.02-74.75-60.32-85.27-110.12-44.16-25.62-88.32-51.25-132.49-76.87-37.15-7.66-74.36-13.39-112.4-13.53-39.04-.14-77.15,5.63-115.27,13.53-44.16,25.63-88.33,51.25-132.49,76.88-10.51,49.8-33.4,97.1-85.27,110.12-21.47,219.6,5.1,440.56,129.94,627.31,67.22,27.37,134.43,54.74,201.65,82.11Z"/>
  <path class="cls-8" d="m153.21,226.63c-19.84,213.51,6.51,428.46,127.1,610.57,64.88,26.42,129.77,52.84,194.65,79.26,64.88-26.42,129.77-52.84,194.65-79.26,120.59-182.11,146.94-397.06,127.1-610.57-50.05-16.11-73.62-62.48-84.76-111.49-42.32-24.56-84.65-49.12-126.97-73.67-6.07-1.24-12.15-2.43-18.24-3.55-7.58-1.39-15.69-3.04-23.02.4-7.93,3.72-9.91,12.2-7.84,23.64,3.37,18.62-12.57,18.56-18.76,41.03-1.82,6.59-2.96,14.5-3.38,23.81,2.2,26.01,10.58,52.01-11.94,78.02,9.74,19.44,2.08,30.08-10.44,38.26-5.47,6.09-10.94,12.18-16.41,18.27-5.47-6.09-10.94-12.18-16.41-18.27-12.53-8.18-20.18-18.81-10.44-38.26-22.51-26.01-14.14-52.01-11.94-78.02-.42-9.3-1.56-17.21-3.38-23.81-6.19-22.47-22.13-22.41-18.76-41.03,1.93-10.7.35-18.89-6.3-22.88-5.68-3.41-12.18-3.44-18.51-2.36-8.08,1.39-16.19,3.02-24.27,4.74-42.33,24.56-84.65,49.12-126.98,73.68-11.14,49-34.71,95.37-84.76,111.49Z"/>
  <path class="cls-3" d="m187,627.95c14.02,48,32.43,94.82,55.87,140.01,4.26-3.65,9.8-6.35,15.84-8.29,8.88-2.85,8.76,1.13,23.99,3.51,15.22,2.38,26.3-7.73,38.03-7.02,11.73.71,15.22,10.52,29.84,11.12,14.62.6,15.7-9.8,26.54-10.13,10.85-.33,10.73,6.84,18.58,8.38,7.85,1.53,23.74-2.42,32.19-.58,8.45,1.83,7.27,11.78,16.97,11.12,6.06-.42,8.45-6.5,14.21-10.72,7.72-5.66,22.78-5.78,30.65-.31,6.08,4.23,8.44,10.6,14.65,11.03,9.7.66,8.52-9.29,16.97-11.12,8.45-1.83,24.34,2.11,32.19.58,7.85-1.53,7.73-8.7,18.58-8.38,10.84.33,11.93,10.72,26.54,10.13,14.62-.59,18.11-10.41,29.84-11.12,11.73-.71,22.81,9.4,38.03,7.02,15.22-2.38,15.11-6.36,23.99-3.51,6.28,2.02,12.02,4.85,16.33,8.72,23.54-45.33,42.03-92.29,56.09-140.44H187Z"/>
  <path class="cls-4" d="m794.07,228.73c-49.78-16.93-73.37-63.31-84.59-111.76-41.84-24.28-83.68-48.55-125.51-72.83-7.19-1.47-14.39-2.86-21.61-4.15-6.99-1.25-16.6-2.25-21.59,4.11-3.62,4.61-3.08,11.97-2.11,17.37.98,5.44.66,10.42-2.04,15.33-2.26,4.1-5.82,7.56-8.73,11.22-3.86,4.86-6.39,9.72-8.05,15.73-2.04,7.41-2.92,15.34-3.27,23.01.36,4.25.89,8.49,1.42,12.72.96,7.76,1.93,15.54,1.93,23.36,0,16.39-4.42,29.86-14.77,42.41,3.89,8.41,5.74,17.72,1.35,26.4-2.91,5.75-7.97,10.09-13.28,13.59-5.39,6-10.78,12-16.17,18l-2.1,2.34-2.1-2.34c-5.39-6-10.78-12-16.17-18-5.31-3.5-10.37-7.84-13.28-13.59-4.39-8.68-2.54-17.99,1.35-26.4-10.35-12.55-14.77-26.03-14.77-42.41,0-12.13,2.31-24.04,3.34-36.09-.36-7.66-1.23-15.6-3.27-23.01-1.66-6.01-4.19-10.87-8.05-15.73-2.91-3.66-6.47-7.12-8.73-11.22-2.7-4.91-3.02-9.89-2.04-15.33.98-5.39,1.51-12.76-2.11-17.36-4.54-5.78-13.54-5.55-20.04-4.4-7.73,1.37-15.45,2.86-23.14,4.43-41.84,24.28-83.68,48.56-125.53,72.83-11.23,48.45-34.82,94.83-84.59,111.76-12.14,132.46-6.66,268.04,30.34,396.4h577.54c37-128.36,42.48-263.94,30.34-396.4h0ZM244.2,770.54c11.56,22.08,24.24,43.58,37.97,64.38,64.26,26.17,128.52,52.33,192.78,78.5,64.26-26.17,128.52-52.33,192.78-78.5,13.65-20.66,26.24-42,37.74-63.93-4.34-4.12-10.28-6.84-15.85-8.63-1.85-.59-3.73-1.06-5.68-.76-1.83.28-3.92,1.13-5.7,1.71-3.73,1.21-7.44,2.06-11.31,2.66-7.29,1.14-13.74-.3-20.6-2.63-4.96-1.69-10.69-4.17-15.95-4.38-.58-.02-1.16-.02-1.75.02-3.25.2-5.87,1.21-8.66,2.81-2.9,1.66-5.56,3.58-8.57,5.08-4.05,2.02-8.13,3.05-12.66,3.23-4.46.18-8.55-.53-12.49-2.66-2.73-1.48-4.86-3.42-7.4-5.11-2.19-1.47-4.19-2.27-6.86-2.35-4.63-.14-6.41.98-9.72,3.88-2.58,2.26-4.78,3.77-8.23,4.44-5.06.98-12.12.06-17.29-.43-4.35-.41-10.59-1.09-14.84-.17-4.3.93-5.76,5.43-8.79,8.22-2.55,2.36-5.53,3.19-8.97,2.95-7.52-.52-10.51-7.67-16.07-11.53-6.87-4.77-20.62-4.68-27.37.27-5.34,3.91-8.3,10.75-15.69,11.26-3.44.23-6.41-.59-8.97-2.95-3.02-2.79-4.48-7.29-8.79-8.22-4.25-.92-10.49-.23-14.84.17-5.17.48-12.23,1.41-17.29.43-3.46-.67-5.66-2.18-8.23-4.44-3.31-2.9-5.08-4.02-9.72-3.88-2.67.08-4.66.88-6.86,2.35-2.53,1.7-4.67,3.64-7.4,5.11-3.94,2.13-8.03,2.84-12.49,2.66-4.53-.18-8.61-1.21-12.66-3.23-3.01-1.5-5.67-3.42-8.57-5.08-2.8-1.6-5.41-2.61-8.66-2.81-.58-.03-1.16-.04-1.75-.02-5.26.21-10.99,2.69-15.95,4.38-6.86,2.33-13.31,3.77-20.6,2.63-3.88-.61-7.58-1.45-11.31-2.66-1.78-.58-3.86-1.42-5.7-1.71-1.95-.3-3.83.16-5.68.76-5.39,1.73-11.09,4.31-15.37,8.18Z"/>
  <path class="cls-5" d="m590.11,845.45c-3.23,2.54-7.65,6.23-11.96,6.16-4.54-.08-9.19-4.07-12.55-6.8-5.72-4.63-11.24-9-18.96-9.27-7.39-.26-11.73,3.7-16.74,8.44-4.75,4.5-9.07,8.26-16.03,8.23-7.04-.04-11.57-4.05-16.4-8.53-1.68-1.56-3.36-3.12-5.18-4.51-3.61-2.76-7.78-4.59-12.37-4.74-4.53-.14-8.74,1.4-12.41,4-2.22,1.57-4.2,3.41-6.19,5.25-4.83,4.48-9.36,8.49-16.4,8.53-6.97.04-11.29-3.73-16.03-8.23-5.01-4.75-9.35-8.7-16.74-8.44-7.72.27-13.24,4.64-18.96,9.27-3.36,2.72-8.01,6.72-12.55,6.8-4.83.08-10.06-4.46-13.61-7.37-1.41-1.16-2.82-2.32-4.29-3.4-1.34-.99-3.23-.71-4.22.63-.99,1.34-.71,3.22.63,4.21,1.38,1.03,2.72,2.12,4.05,3.21,5.02,4.12,10.65,8.86,17.53,8.74,6.48-.11,11.47-4.27,16.26-8.14,4.4-3.57,9.44-7.72,15.36-7.93,5.13-.18,8.91,3.51,12.37,6.79,6.18,5.86,11.18,9.93,20.21,9.88,9.07-.05,14.21-4.31,20.49-10.13,1.77-1.64,3.57-3.33,5.55-4.73,2.57-1.81,5.57-3.02,8.75-2.92,3.29.1,6.32,1.54,8.9,3.51,1.66,1.27,3.2,2.71,4.74,4.13,6.28,5.82,11.42,10.08,20.49,10.13,9.03.05,14.03-4.02,20.21-9.88,3.46-3.28,7.24-6.97,12.36-6.79,5.93.21,10.96,4.36,15.37,7.93,4.79,3.87,9.78,8.03,16.26,8.14,6.33.11,11.11-3.76,15.83-7.47.08-.07.17-.13.25-.2,0,0,.02-.02.03-.03.02-.02.03-.03.05-.05,0,0,.02-.02.03-.02.03-.03.07-.06.11-.09.18-.14.36-.28.55-.43,1.31-1.02,1.54-2.92.52-4.23-1.02-1.31-2.92-1.54-4.23-.52l-1.1.85h0Zm12.49-46.36c5.29,4.94,10.27,9.29,18,9.47,6.47.15,12.22-1.48,17.21-5.65,4.67-3.9,7.93-9.46,10.53-14.89.72-1.5.08-3.3-1.41-4.02-1.5-.72-3.3-.08-4.02,1.42-2.21,4.59-5.02,9.55-8.98,12.86-3.81,3.18-8.3,4.37-13.22,4.25-5.65-.13-10.07-4.18-13.99-7.85h-.01s-.51-.48-.51-.48c-5.8-5.43-11.05-10.17-19.54-10.23-8.56-.05-14.28,4.13-20.68,9.16-3.23,2.55-7.68,6.28-12.01,6.2-4.54-.08-9.18-4.07-12.55-6.8-5.72-4.63-11.24-9-18.96-9.27-7.39-.26-11.73,3.7-16.74,8.44-4.75,4.5-9.06,8.26-16.03,8.22-7.04-.04-11.57-4.05-16.4-8.52-1.68-1.56-3.36-3.12-5.18-4.51-3.61-2.76-7.78-4.59-12.37-4.74-4.53-.14-8.74,1.4-12.41,4-2.22,1.57-4.2,3.41-6.19,5.25-4.83,4.48-9.36,8.49-16.4,8.53-6.97.04-11.29-3.73-16.03-8.22-5.01-4.75-9.35-8.7-16.74-8.44-7.72.27-13.24,4.64-18.96,9.27-3.36,2.72-8.01,6.72-12.55,6.8-4.83.08-10.06-4.46-13.61-7.37-4.58-3.76-9.92-8.33-16.2-8.27-5.68.05-10.54,2.21-14.85,5.77-3.96,3.26-7.17,7.45-10.02,11.68-.93,1.38-.57,3.26.82,4.2,1.38.93,3.26.57,4.2-.82,2.5-3.72,5.36-7.55,8.83-10.41,3.21-2.65,6.85-4.36,11.07-4.4,4.22-.04,9.22,4.35,12.33,6.9,5.03,4.12,10.65,8.86,17.53,8.74,6.48-.11,11.47-4.27,16.26-8.14,4.41-3.57,9.44-7.72,15.36-7.93,5.13-.18,8.91,3.51,12.37,6.79,6.18,5.86,11.18,9.93,20.21,9.88,9.07-.05,14.21-4.31,20.49-10.13,1.77-1.64,3.57-3.33,5.55-4.73,2.57-1.81,5.57-3.02,8.75-2.92,3.29.1,6.32,1.54,8.89,3.51,1.66,1.27,3.2,2.71,4.74,4.13,6.27,5.82,11.42,10.08,20.49,10.13,9.03.05,14.03-4.02,20.21-9.88,3.46-3.28,7.24-6.97,12.37-6.79,5.92.21,10.96,4.36,15.36,7.92,4.79,3.88,9.78,8.04,16.26,8.14,6.34.11,11.11-3.76,15.84-7.47,5.03-3.96,10.19-7.94,16.92-7.89,6.37.04,11.08,4.51,15.45,8.59l.52.48h0Zm-195.91,66.07c-1.66.06-3.06-1.24-3.12-2.9-.06-1.66,1.25-3.06,2.91-3.12,7.39-.26,11.73,3.7,16.74,8.44,4.75,4.5,9.07,8.26,16.03,8.22,7.04-.04,11.57-4.05,16.4-8.52,1.98-1.84,3.97-3.68,6.19-5.25,3.67-2.59,7.88-4.14,12.41-4,4.58.14,8.76,1.98,12.37,4.74,1.82,1.39,3.51,2.95,5.19,4.51,4.83,4.48,9.36,8.49,16.4,8.52,6.97.04,11.29-3.73,16.03-8.22,5.01-4.75,9.35-8.7,16.74-8.44,1.66.06,2.96,1.46,2.9,3.12-.06,1.66-1.46,2.96-3.12,2.9-5.13-.18-8.91,3.51-12.37,6.79-6.18,5.86-11.18,9.93-20.21,9.88-9.07-.05-14.21-4.31-20.49-10.13-1.53-1.42-3.07-2.86-4.73-4.13-2.58-1.97-5.6-3.41-8.89-3.51-3.18-.1-6.19,1.1-8.75,2.92-1.97,1.39-3.78,3.08-5.54,4.73-6.28,5.82-11.42,10.08-20.49,10.13-9.03.05-14.03-4.02-20.21-9.88-3.46-3.28-7.24-6.97-12.36-6.79h0Zm-50.47-38.52h.01s-.57-.47-.57-.47c-3.11-2.55-8.11-6.93-12.33-6.89-1.93.02-3.81.39-5.61,1.1-1.8.7-3.45,1.71-4.96,2.9-1.31,1.02-3.2.79-4.23-.52-1.02-1.31-.79-3.2.52-4.23,1.98-1.55,4.13-2.86,6.48-3.78,2.49-.98,5.09-1.47,7.76-1.5,6.28-.06,11.61,4.51,16.19,8.26l.54.44h0c3.52,2.89,8.49,7.01,13.08,6.93,4.54-.08,9.18-4.07,12.55-6.8,5.72-4.63,11.24-9,18.96-9.27,7.39-.26,11.73,3.7,16.74,8.44,4.75,4.5,9.07,8.27,16.03,8.23,7.04-.04,11.57-4.05,16.4-8.53,1.98-1.84,3.97-3.68,6.19-5.25,3.67-2.59,7.88-4.14,12.41-4,4.59.15,8.76,1.98,12.37,4.74,1.82,1.39,3.5,2.95,5.19,4.51,4.83,4.48,9.36,8.49,16.4,8.53,6.97.04,11.29-3.73,16.03-8.23,5.01-4.74,9.35-8.7,16.74-8.44,7.72.27,13.24,4.64,18.96,9.27,3.36,2.72,8.01,6.72,12.55,6.8,4.33.07,8.78-3.66,12.01-6.2,6.4-5.03,12.12-9.22,20.68-9.16,8.49.05,13.74,4.8,19.54,10.23,1.05.99,2.11,1.97,3.19,2.91,1.25,1.09,1.37,3,.28,4.25-1.09,1.25-3,1.37-4.25.28-1.13-.99-2.23-2.03-3.33-3.05-4.36-4.09-9.08-8.56-15.45-8.6-6.73-.04-11.89,3.94-16.92,7.89-4.72,3.72-9.5,7.58-15.84,7.47-6.48-.11-11.48-4.27-16.26-8.14-4.41-3.57-9.44-7.71-15.36-7.92-5.13-.18-8.91,3.51-12.37,6.79-6.18,5.86-11.19,9.93-20.21,9.88-9.07-.05-14.21-4.31-20.49-10.13-1.53-1.42-3.07-2.86-4.73-4.13-2.58-1.97-5.61-3.41-8.9-3.51-3.18-.1-6.19,1.1-8.75,2.92-1.97,1.4-3.78,3.08-5.55,4.73-6.28,5.82-11.42,10.08-20.49,10.13-9.03.05-14.03-4.02-20.21-9.88-3.46-3.28-7.24-6.97-12.37-6.79-5.92.21-10.96,4.36-15.36,7.92-4.79,3.88-9.78,8.03-16.26,8.14-6.65.11-12.09-4.26-16.98-8.27Z"/>
  <path class="cls-5" d="m483.84,286.89c68.29,16.58,64.67,81.69,73.03,145.4,27.91,23.53,44.03,48.2,49.84,75.18,18.13,84.27-37.34,98.25-84.87,103.48-15.48,7.5-20.54,16.48-29.59,19.93-3.78,1.44-28.76,1.43-32.5,0-9.05-3.45-14.12-12.44-29.59-19.93-47.54-5.23-103.01-19.21-84.87-103.48,5.81-26.99,21.93-51.65,49.84-75.18,8.33-63.45,4.77-128.28,72.2-145.19,5.75,1.7,10.72,1.64,16.54-.21Z"/>
  <path class="cls-6" d="m484.14,285.69c59.85,14.53,65.22,65.5,71.01,120.53.89,8.44,1.79,16.97,2.89,25.44,13.87,11.74,24.83,23.78,33.07,36.25,8.33,12.61,13.88,25.67,16.81,39.32,9.18,42.68-.35,67.62-18.23,82.59-17.74,14.84-43.61,19.72-67.51,22.36-8.03,3.92-13.22,8.26-17.66,11.97-4.02,3.36-7.44,6.23-11.84,7.91-2.03.77-9.37,1.16-16.66,1.16s-14.7-.39-16.72-1.16c-4.4-1.68-7.83-4.54-11.84-7.91-4.44-3.71-9.63-8.06-17.66-11.97-23.9-2.64-49.77-7.51-67.51-22.36-17.88-14.97-27.41-39.91-18.23-82.59,2.94-13.65,8.48-26.7,16.81-39.32,8.24-12.47,19.2-24.51,33.07-36.25,1.1-8.47,2-17,2.89-25.43,5.77-54.77,11.11-105.52,70.17-120.33h.65c2.76.83,5.32,1.23,7.88,1.19,2.55-.03,5.13-.49,7.93-1.38l.67-.02h0Zm68.55,120.78c-5.69-54.02-10.96-104.06-68.8-118.29-2.89.89-5.6,1.35-8.32,1.38-2.72.03-5.41-.36-8.27-1.18-57.08,14.49-62.33,64.32-68,118.09-.9,8.59-1.82,17.28-2.96,25.98l-.43.79c-13.86,11.69-24.79,23.65-32.97,36.03-8.16,12.35-13.58,25.12-16.45,38.46-8.95,41.59.19,65.77,17.39,80.17,17.29,14.47,42.82,19.22,66.4,21.82l.41.12c8.42,4.08,13.79,8.57,18.36,12.4,3.85,3.22,7.12,5.96,11.13,7.49,1.73.66,8.76.99,15.84.99s14.04-.33,15.78-.99c4.02-1.53,7.29-4.27,11.14-7.49,4.58-3.83,9.94-8.32,18.36-12.4l.41-.12c23.58-2.59,49.11-7.34,66.4-21.82,17.2-14.4,26.34-38.58,17.39-80.17-2.87-13.34-8.29-26.11-16.45-38.46-8.18-12.38-19.11-24.35-32.97-36.03l-.43-.79c-1.14-8.7-2.06-17.39-2.96-25.98Z"/>
  <polygon class="cls-6" points="476.14 556.94 497.46 555.67 510.59 576.12 511.3 577.22 512.4 576.49 608.27 512.64 606.83 510.59 512.05 573.71 499.63 554.36 567.7 441.62 565.51 440.37 497.38 553.19 475.99 554.46 475.84 556.94 454.52 555.67 441.39 576.12 440.68 577.22 439.58 576.49 343.71 512.64 345.15 510.59 439.92 573.71 452.35 554.36 384.28 441.62 386.47 440.37 454.6 553.19 475.99 554.46 476.14 556.94"/>
  <path class="cls-5" d="m461.08,284.73c-20.7-9.34-16.33-26.79-.48-43.15,4.88-5.04,9.76-10.08,14.64-15.12,4.88,5.04,9.76,10.08,14.65,15.12,15.85,16.36,20.21,33.81-.48,43.15-10.64,4.8-17.68,4.8-28.32,0Z"/>
  <path class="cls-6" d="m460.56,285.86c-3.77-1.7-6.76-3.68-9.03-5.88-3.35-3.25-5.13-6.96-5.58-10.96-.44-3.95.43-8.16,2.38-12.47,2.35-5.21,6.28-10.58,11.37-15.83l14.64-15.12.89-.92.89.92,14.64,15.12c5.09,5.25,9.02,10.62,11.37,15.83,1.94,4.31,2.82,8.52,2.37,12.47-.45,4.01-2.22,7.72-5.57,10.96-2.27,2.2-5.25,4.17-9.03,5.88-5.48,2.47-10.06,3.71-14.67,3.71s-9.19-1.24-14.67-3.71h0Zm-7.3-7.66c2.06,2,4.81,3.81,8.32,5.39,5.15,2.33,9.42,3.49,13.65,3.49s8.5-1.16,13.65-3.49c3.51-1.59,6.26-3.4,8.32-5.39,2.91-2.82,4.45-6.02,4.84-9.46.39-3.49-.41-7.27-2.17-11.18-2.23-4.94-6-10.08-10.88-15.12l-13.76-14.2-13.76,14.2c-4.88,5.04-8.65,10.18-10.88,15.12-1.77,3.91-2.56,7.69-2.17,11.18.38,3.44,1.93,6.64,4.84,9.46Z"/>
  <rect class="cls-9" x="390.55" y="626.39" width="48.32" height="7.16"/>
  <path class="cls-6" d="m390.55,624.87h49.84v10.19h-51.36v-10.19h1.52Zm46.8,3.04h-45.28v4.12h45.28v-4.12Z"/>
  <rect class="cls-9" x="399.97" y="617.65" width="38.9" height="8.74"/>
  <path class="cls-6" d="m401.49,624.87h35.86v-5.7h-35.86v5.7h0Zm37.38,3.04h-40.42v-11.77h41.94v11.77h-1.52Z"/>
  <rect class="cls-1" x="406.68" y="547.37" width="32.19" height="70.28"/>
  <path class="cls-6" d="m406.68,545.85h33.71v73.32h-35.22v-73.32h1.52Zm30.67,3.04h-29.15v67.24h29.15v-67.24Z"/>
  <rect class="cls-1" x="390.6" y="536.73" width="48.27" height="10.64"/>
  <path class="cls-6" d="m392.12,545.85h45.23v-7.6h-45.23v7.6h0Zm46.75,3.04h-49.79v-13.67h51.31v13.67h-1.52Z"/>
  <rect class="cls-1" x="382.15" y="521.99" width="56.72" height="14.74"/>
  <path class="cls-6" d="m382.15,520.48h58.24v17.77h-59.76v-17.77h1.52Zm55.2,3.04h-53.68v11.7h53.68v-11.7Z"/>
  <rect class="cls-1" x="370.8" y="485.35" width="68.07" height="36.64"/>
  <path class="cls-6" d="m372.32,520.48h65.03v-33.61h-65.03v33.61h0Zm66.55,3.04h-69.59v-39.68h71.11v39.68h-1.52Z"/>
  <rect class="cls-1" x="378.29" y="476.47" width="60.58" height="8.88"/>
  <path class="cls-6" d="m378.29,474.95h62.09v11.92h-63.61v-11.92h1.52Zm59.05,3.04h-57.54v5.84h57.54v-5.84Z"/>
  <rect class="cls-1" x="388.6" y="464.84" width="50.27" height="11.63"/>
  <path class="cls-6" d="m390.12,474.95h47.23v-8.59h-47.23v8.59h0Zm48.75,3.04h-51.79v-14.67h53.3v14.67h-1.52Z"/>
  <rect class="cls-1" x="399.97" y="452.94" width="38.9" height="11.89"/>
  <path class="cls-6" d="m399.97,451.42h40.42v14.93h-41.94v-14.93h1.52Zm37.38,3.04h-35.86v8.86h35.86v-8.86Z"/>
  <rect class="cls-1" x="403.67" y="441.58" width="35.2" height="11.37"/>
  <path class="cls-6" d="m405.19,451.42h32.16v-8.33h-32.16v8.33h0Zm33.68,3.04h-36.72v-14.4h38.24v14.4h-1.52Z"/>
  <rect class="cls-1" x="410.81" y="430.48" width="28.06" height="11.1"/>
  <path class="cls-6" d="m410.81,428.96h29.58v14.14h-31.1v-14.14h1.52Zm26.54,3.04h-25.02v8.06h25.02v-8.06Z"/>
  <rect class="cls-1" x="415.3" y="418.32" width="23.57" height="12.16"/>
  <path class="cls-6" d="m416.82,428.96h20.53v-9.12h-20.53v9.12h0Zm22.05,3.04h-25.09v-15.2h26.61v15.2h-1.52Z"/>
  <rect class="cls-1" x="419.79" y="406.95" width="19.07" height="11.37"/>
  <path class="cls-6" d="m419.79,405.43h20.59v14.4h-22.11v-14.4h1.52Zm17.55,3.04h-16.04v8.33h16.04v-8.33Z"/>
  <rect class="cls-1" x="429.33" y="395.85" width="9.54" height="11.1"/>
  <path class="cls-6" d="m430.85,405.43h6.5v-8.06h-6.5v8.06h0Zm8.02,3.04h-11.06v-14.14h12.58v14.14h-1.52Z"/>
  <rect class="cls-1" x="409.48" y="382.9" width="29.38" height="12.95"/>
  <path class="cls-6" d="m409.48,381.38h30.9v15.99h-32.42v-15.99h1.52Zm27.86,3.04h-26.34v9.92h26.34v-9.92Z"/>
  <rect class="cls-1" x="421.38" y="373.64" width="17.49" height="9.25"/>
  <path class="cls-6" d="m422.9,381.38h14.45v-6.21h-14.45v6.21h0Zm15.97,3.04h-19.01v-12.29h20.53v12.29h-1.52Z"/>
  <rect class="cls-1" x="427.19" y="359.1" width="11.67" height="14.54"/>
  <path class="cls-6" d="m427.19,357.59h13.19v17.58h-14.71v-17.58h1.52Zm10.15,3.04h-8.64v11.5h8.64v-11.5Z"/>
  <rect class="cls-1" x="431.16" y="323.16" width="7.71" height="35.95"/>
  <path class="cls-6" d="m432.68,357.59h4.67v-32.91h-4.67v32.91h0Zm6.19,3.04h-9.23v-38.99h10.75v38.99h-1.52Z"/>
  <rect class="cls-9" x="511.05" y="626.39" width="48.32" height="7.16"/>
  <path class="cls-6" d="m557.84,627.91h-45.28v4.12h45.28v-4.12h0Zm-46.8-3.04h49.84v10.19h-51.36v-10.19h1.52Z"/>
  <rect class="cls-9" x="511.05" y="617.65" width="38.9" height="8.74"/>
  <path class="cls-6" d="m549.94,627.91h-40.42v-11.77h41.94v11.77h-1.52Zm-37.38-3.04h35.86v-5.7h-35.86v5.7Z"/>
  <rect class="cls-1" x="511.05" y="547.37" width="32.19" height="70.28"/>
  <path class="cls-6" d="m541.71,548.89h-29.15v67.24h29.15v-67.24h0Zm-30.67-3.04h33.7v73.32h-35.22v-73.32h1.52Z"/>
  <rect class="cls-1" x="511.05" y="536.73" width="48.27" height="10.64"/>
  <path class="cls-6" d="m559.31,548.89h-49.79v-13.67h51.31v13.67h-1.52Zm-46.75-3.04h45.23v-7.6h-45.23v7.6Z"/>
  <rect class="cls-1" x="511.05" y="521.99" width="56.72" height="14.74"/>
  <path class="cls-6" d="m566.25,523.51h-53.68v11.7h53.68v-11.7h0Zm-55.2-3.04h58.24v17.77h-59.76v-17.77h1.52Z"/>
  <rect class="cls-1" x="511.05" y="485.35" width="68.07" height="36.64"/>
  <path class="cls-6" d="m579.11,523.51h-69.59v-39.68h71.11v39.68h-1.52Zm-66.55-3.04h65.03v-33.61h-65.03v33.61Z"/>
  <rect class="cls-1" x="511.05" y="476.47" width="60.58" height="8.88"/>
  <path class="cls-6" d="m570.1,477.99h-57.54v5.84h57.54v-5.84h0Zm-59.06-3.04h62.09v11.92h-63.61v-11.92h1.52Z"/>
  <rect class="cls-1" x="511.05" y="464.84" width="50.27" height="11.63"/>
  <path class="cls-6" d="m561.31,477.99h-51.79v-14.67h53.3v14.67h-1.52Zm-48.75-3.04h47.23v-8.59h-47.23v8.59Z"/>
  <rect class="cls-1" x="511.05" y="452.94" width="38.9" height="11.89"/>
  <path class="cls-6" d="m548.43,454.46h-35.86v8.86h35.86v-8.86h0Zm-37.38-3.04h40.42v14.93h-41.94v-14.93h1.52Z"/>
  <rect class="cls-1" x="511.05" y="441.58" width="35.2" height="11.37"/>
  <path class="cls-6" d="m546.24,454.46h-36.72v-14.4h38.24v14.4h-1.52Zm-33.68-3.04h32.16v-8.33h-32.16v8.33Z"/>
  <rect class="cls-1" x="511.05" y="430.48" width="28.06" height="11.1"/>
  <path class="cls-6" d="m537.59,431.99h-25.02v8.06h25.02v-8.06h0Zm-26.54-3.04h29.58v14.14h-31.1v-14.14h1.52Z"/>
  <rect class="cls-1" x="511.05" y="418.32" width="23.57" height="12.16"/>
  <path class="cls-6" d="m534.62,431.99h-25.09v-15.2h26.61v15.2h-1.52Zm-22.05-3.04h20.53v-9.12h-20.53v9.12Z"/>
  <rect class="cls-1" x="511.05" y="406.95" width="19.07" height="11.37"/>
  <path class="cls-6" d="m528.6,408.47h-16.04v8.33h16.04v-8.33h0Zm-17.55-3.04h20.59v14.4h-22.11v-14.4h1.52Z"/>
  <rect class="cls-1" x="511.05" y="395.85" width="9.54" height="11.1"/>
  <path class="cls-6" d="m520.58,408.47h-11.06v-14.14h12.58v14.14h-1.52Zm-8.02-3.04h6.5v-8.06h-6.5v8.06Z"/>
  <rect class="cls-1" x="511.05" y="382.9" width="29.38" height="12.95"/>
  <path class="cls-6" d="m538.91,384.41h-26.34v9.92h26.34v-9.92h0Zm-27.86-3.04h30.9v15.99h-32.42v-15.99h1.52Z"/>
  <rect class="cls-1" x="511.05" y="373.64" width="17.49" height="9.25"/>
  <path class="cls-6" d="m528.54,384.41h-19.01v-12.29h20.53v12.29h-1.52Zm-15.97-3.04h14.45v-6.21h-14.45v6.21Z"/>
  <rect class="cls-1" x="511.05" y="359.1" width="11.67" height="14.54"/>
  <path class="cls-6" d="m521.2,360.62h-8.64v11.5h8.64v-11.5h0Zm-10.16-3.04h13.19v17.58h-14.71v-17.58h1.52Z"/>
  <rect class="cls-1" x="511.05" y="323.16" width="7.71" height="35.95"/>
  <path class="cls-6" d="m518.75,360.62h-9.23v-38.99h10.75v38.99h-1.52Zm-6.19-3.04h4.67v-32.91h-4.67v32.91Z"/>
  <rect class="cls-1" x="451.82" y="626.39" width="48.32" height="12.6"/>
  <path class="cls-6" d="m451.82,624.87h49.84v15.64h-51.35v-15.64h1.52Zm46.8,3.04h-45.28v9.57h45.28v-9.57Z"/>
  <rect class="cls-1" x="442.37" y="638.99" width="67.22" height="12.6"/>
  <path class="cls-6" d="m443.89,650.08h64.18v-9.57h-64.18v9.57h0Zm65.7,3.04h-68.74v-15.64h70.25v15.64h-1.52Z"/>
  <rect class="cls-1" x="425.77" y="651.59" width="100.41" height="14.7"/>
  <path class="cls-6" d="m425.77,650.08h101.93v17.74h-103.45v-17.74h1.52Zm98.89,3.04h-97.37v11.67h97.37v-11.67Z"/>
  <polygon class="cls-2" points="474.31 183.35 481.46 205.35 503.66 205.81 486 219.76 492.45 242.14 474.39 228.77 456.17 242.14 462.67 219.92 444.96 205.81 467.04 205.45 474.31 183.35"/>
  <path class="cls-8" d="m475.49,182.97l6.87,21.16,21.32.44.74,2.21-17.01,13.44,6.22,21.58-1.93,1.33-17.32-12.83-17.48,12.83-1.92-1.35,6.26-21.42-17.06-13.59.75-2.21,21.19-.34,7-21.26h2.36Zm4.78,22.77l-5.97-18.39-6.09,18.49-.28.84-.88.02-18.62.3,15.01,11.96.65.52-.23.8-5.47,18.71,15.27-11.21.73-.54.74.55,15.12,11.19-5.44-18.87-.23-.8.65-.52,14.95-11.82-18.75-.38-.88-.02-.27-.84Z"/>
  <path class="cls-5" d="m194.45,223.26c23.83-20.44,48.94-34.52,74.5-46.32,12.74,20.41,25.48,40.81,38.22,61.22-38.42,16.05-69.76,37.29-95.23,62.84,4.21-21.16,8.42-42.32,12.63-63.48-10.04-4.75-20.08-9.5-30.12-14.25Z"/>
  <path class="cls-6" d="m193.64,222.32c11.96-10.26,24.25-18.93,36.77-26.51,12.51-7.59,25.21-14.08,38.02-19.99l.99-.46.58.93,38.22,61.22.77,1.24-1.35.56c-19.14,7.99-36.51,17.28-52.26,27.74-15.75,10.46-29.89,22.11-42.56,34.82l-2.1-1.11,12.44-62.54-29.24-13.84.53-1.12-.81-.94h0Zm38.05-24.4c-11.88,7.2-23.57,15.4-34.97,25.04l28.39,13.43.88.42-.19.95-11.84,59.52c12.04-11.73,25.36-22.52,40.06-32.29,15.51-10.31,32.58-19.47,51.33-27.4l-36.87-59.05c-12.42,5.76-24.72,12.07-36.78,19.39Z"/>
  <polygon class="cls-5" points="262.75 235.8 307.17 238.16 280.28 185.36 262.75 235.8"/>
  <path class="cls-6" d="m264.46,234.65l40.62,2.15-24.59-48.28-16.03,46.13h0Zm42.64,4.75l-44.41-2.35-1.65-.09.54-1.56,17.53-50.44.96-2.75,1.32,2.6,26.88,52.8.98,1.92-2.15-.11Z"/>
  <path class="cls-5" d="m760.14,223.26c-23.83-20.44-48.93-34.52-74.5-46.32-12.74,20.41-25.48,40.81-38.22,61.22,38.42,16.05,69.76,37.29,95.23,62.84-4.21-21.16-8.42-42.32-12.63-63.48,10.04-4.75,20.08-9.5,30.12-14.25Z"/>
  <path class="cls-6" d="m757.88,222.96c-11.41-9.64-23.1-17.84-34.97-25.04-12.07-7.32-24.36-13.63-36.78-19.39l-36.87,59.05c18.75,7.93,35.82,17.09,51.33,27.4,14.71,9.77,28.02,20.56,40.06,32.29l-11.84-59.52-.19-.95.88-.42,28.39-13.43h0Zm-33.69-27.16c12.51,7.59,24.8,16.26,36.76,26.51l-.81.94.53,1.12-29.24,13.84,12.44,62.54-2.1,1.11c-12.67-12.71-26.81-24.36-42.56-34.82-15.76-10.47-33.13-19.75-52.26-27.74l-1.35-.56.77-1.24,38.22-61.22.58-.93,1,.46c12.8,5.91,25.51,12.4,38.02,19.99Z"/>
  <polygon class="cls-5" points="691.84 235.8 647.42 238.16 674.31 185.36 691.84 235.8"/>
  <path class="cls-6" d="m691.9,237.04l-44.42,2.35-2.14.11.98-1.92,26.88-52.8,1.32-2.6.96,2.75,17.53,50.44.54,1.56-1.65.09h0Zm-42.39-.24l40.62-2.15-16.04-46.13-24.58,48.28Z"/>
  <path class="cls-5" d="m262.75,235.8c-8.94-20.25-17.88-40.49-26.82-60.74,116.67-105.58,366.06-105.58,482.73,0-8.94,20.25-17.88,40.49-26.82,60.74-139.77-85.48-289.32-85.48-429.09,0Z"/>
  <path class="cls-6" d="m261.61,236.3l-26.82-60.74-.36-.82.67-.6c58.57-53.01,150.4-79.51,242.19-79.51s183.62,26.5,242.19,79.51l.66.6-.36.82-26.82,60.74-.57,1.3-1.21-.74c-69.69-42.62-141.8-63.93-213.9-63.93s-144.21,21.31-213.9,63.93l-1.21.74-.57-1.3h0Zm-24.18-60.91l25.88,58.62c69.71-42.37,141.84-63.56,213.98-63.56s144.27,21.19,213.98,63.56l25.88-58.62c-58.12-52.17-148.98-78.26-239.86-78.26s-181.74,26.09-239.86,78.26Z"/>
  <path class="cls-6" d="m292.3,210.53l-21.42-43.92,13.91-6.79c5.27-2.57,8.82-4.03,10.64-4.37,2.78-.55,5.55-.12,8.29,1.28,2.74,1.4,4.96,3.85,6.66,7.33,1.32,2.7,1.94,5.2,1.88,7.5-.06,2.31-.57,4.34-1.54,6.11-.96,1.76-2.12,3.19-3.48,4.27-1.87,1.43-4.76,3.11-8.69,5.03l-5.65,2.76,8.08,16.57-8.67,4.23h0Zm-9.12-40.71l6.08,12.45,4.74-2.31c3.42-1.67,5.6-3.01,6.53-4.03.93-1.02,1.48-2.18,1.66-3.48.17-1.3-.05-2.59-.69-3.89-.78-1.6-1.88-2.69-3.31-3.29-1.41-.59-2.9-.67-4.43-.24-1.14.3-3.27,1.22-6.39,2.75l-4.19,2.05h0Zm39.76.07c-1.7-4.68-2.45-8.86-2.24-12.53.18-2.7.8-5.31,1.89-7.82,1.09-2.49,2.53-4.58,4.3-6.24,2.36-2.24,5.36-4.01,9.02-5.34,6.62-2.41,12.67-2.24,18.18.52,5.5,2.74,9.61,7.86,12.33,15.33,2.7,7.42,2.83,13.93.42,19.56-2.42,5.61-6.93,9.63-13.52,12.03-6.68,2.43-12.76,2.28-18.21-.44-5.46-2.73-9.52-7.76-12.17-15.06h0Zm9.23-3.71c1.89,5.2,4.51,8.71,7.83,10.54,3.33,1.83,6.8,2.08,10.42.76,3.61-1.31,6.1-3.72,7.45-7.24,1.34-3.5,1.05-7.91-.89-13.24-1.92-5.26-4.47-8.77-7.67-10.55-3.2-1.76-6.67-1.97-10.41-.61-3.75,1.36-6.28,3.78-7.61,7.23-1.33,3.45-1.04,7.81.88,13.1h0Zm49.74,8.6l-10.16-47.8,9.19-1.95,25.92,27.85-6.79-31.92,8.78-1.86,10.16,47.8-9.48,2.02-25.47-27.17,6.63,31.17-8.78,1.87h0Zm43.08-32.83c-.52-4.96-.24-9.18.86-12.7.83-2.58,2.06-4.96,3.73-7.13,1.66-2.15,3.56-3.83,5.68-5.01,2.83-1.6,6.17-2.59,10.05-3,7.01-.74,12.84.89,17.51,4.9,4.67,3.99,7.43,9.95,8.26,17.86.83,7.85-.62,14.2-4.33,19.08-3.71,4.86-9.05,7.67-16.03,8.4-7.07.74-12.93-.87-17.56-4.83-4.64-3.98-7.36-9.83-8.17-17.56h0Zm9.85-1.37c.58,5.5,2.27,9.54,5.04,12.12,2.79,2.58,6.09,3.66,9.92,3.26,3.82-.4,6.81-2.13,8.97-5.22,2.15-3.07,2.94-7.42,2.34-13.06-.59-5.57-2.22-9.59-4.89-12.09-2.68-2.49-6-3.52-9.95-3.11-3.96.42-7,2.14-9.14,5.17-2.12,3.03-2.9,7.33-2.31,12.93h0Zm46.6,21.23l3.41-48.75,20.27,1.42c5.09.36,8.76,1.06,11.01,2.09,2.25,1.04,3.99,2.72,5.23,5.05,1.23,2.34,1.74,4.94,1.54,7.83-.26,3.66-1.52,6.61-3.79,8.85-2.27,2.23-5.52,3.52-9.75,3.83,2,1.4,3.62,2.88,4.88,4.46,1.25,1.58,2.89,4.34,4.92,8.29l5.16,9.92-11.51-.8-6.22-11.1c-2.21-3.96-3.73-6.46-4.57-7.52-.84-1.05-1.76-1.79-2.76-2.23-1-.43-2.59-.73-4.81-.88l-1.94-.14-1.42,20.35-9.64-.67h0Zm11.61-27.46l7.12.5c4.62.32,7.52.33,8.7.02,1.17-.32,2.12-.95,2.84-1.88.71-.93,1.13-2.12,1.23-3.59.12-1.64-.23-2.99-1.01-4.06-.78-1.07-1.95-1.79-3.5-2.17-.77-.16-3.11-.38-7.02-.65l-7.5-.53-.86,12.36h0Zm39.6,6.17c1.03-4.87,2.61-8.81,4.74-11.81,1.58-2.2,3.5-4.08,5.75-5.63,2.25-1.53,4.57-2.54,6.95-3.01,3.19-.65,6.67-.56,10.48.25,6.89,1.47,11.94,4.82,15.14,10.07,3.21,5.24,3.99,11.76,2.33,19.54-1.64,7.72-4.98,13.32-10.01,16.81-5.03,3.48-10.98,4.5-17.84,3.04-6.96-1.48-12.03-4.82-15.21-10.03-3.18-5.21-3.96-11.63-2.34-19.23h0Zm9.79,1.75c-1.15,5.41-.79,9.77,1.05,13.09,1.86,3.31,4.66,5.36,8.43,6.16,3.76.8,7.14.08,10.15-2.19,3-2.26,5.09-6.15,6.26-11.7,1.16-5.48.86-9.81-.91-13.01-1.78-3.19-4.62-5.2-8.5-6.03-3.9-.83-7.32-.13-10.29,2.09-2.95,2.22-5.02,6.07-6.2,11.58h0Zm64.28,22.78l2.55-7.83,19.78,6.43-6.02,18.51c-2.55,1.28-5.87,2.05-10,2.32-4.12.25-8.05-.22-11.78-1.44-4.75-1.54-8.57-3.91-11.45-7.09-2.87-3.19-4.58-6.97-5.13-11.34-.54-4.38-.09-8.79,1.35-13.25,1.57-4.84,3.97-8.82,7.17-11.94,3.21-3.11,7.05-5.06,11.53-5.81,3.41-.6,7.29-.19,11.63,1.22,5.64,1.84,9.66,4.48,12.04,7.92,2.39,3.46,3.34,7.46,2.86,12.03l-9.68-1.22c.1-2.49-.52-4.69-1.86-6.59-1.34-1.9-3.33-3.27-5.97-4.13-4.01-1.3-7.62-1.04-10.83.79-3.22,1.84-5.65,5.31-7.31,10.42-1.79,5.51-1.94,10.04-.43,13.58,1.5,3.54,4.19,5.93,8.07,7.19,1.93.63,3.98.86,6.17.72,2.18-.14,4.14-.54,5.89-1.18l1.92-5.9-10.51-3.41h0Zm31.8,4c2.18-4.48,4.66-7.91,7.46-10.31,2.07-1.75,4.38-3.12,6.94-4.07,2.55-.95,5.04-1.36,7.47-1.24,3.25.14,6.61,1.07,10.11,2.78,6.33,3.09,10.42,7.56,12.26,13.43,1.84,5.86,1.02,12.37-2.46,19.52-3.46,7.09-8.06,11.72-13.78,13.89-5.72,2.16-11.74,1.7-18.04-1.37-6.39-3.12-10.5-7.59-12.33-13.41-1.83-5.83-1.03-12.24,2.38-19.22h0Zm9.08,4.06c-2.43,4.97-3.13,9.29-2.15,12.95,1,3.66,3.23,6.33,6.69,8.02,3.45,1.68,6.91,1.8,10.38.33,3.45-1.47,6.42-4.74,8.91-9.83,2.45-5.03,3.2-9.31,2.27-12.84-.95-3.53-3.22-6.17-6.79-7.91-3.58-1.75-7.07-1.89-10.49-.46-3.4,1.44-6.34,4.68-8.81,9.74Z"/>
  <path class="cls-6" d="m656.82,676.4c-4.75,19.2-3.38,36.9-1.92,55.62l.21,2.72c3.82-.3,7.62-.64,11.36-.98,27.36-2.46,51.63-4.64,60.73,10.38l-2.24,2.7c-13.35-4.98-33.59-2.61-56.99.13-56,6.56-129.75,15.19-176.12-67.95-2.86,1.63-6.52,3.26-11.29,4.88.1,7.71,1.72,14.31,4.3,19.6,3,6.19,7.28,10.57,11.89,12.85l-1.65,3.34c-5.31-2.63-10.21-7.61-13.59-14.57-2.66-5.49-4.39-12.23-4.64-20.04-.71.22-1.44.43-2.2.65-8.7,2.48-20.4,4.95-36.32,7.44-10.31,11.42-27.07,21.71-48.54,31.16-21.63,9.52-48.11,18.24-77.63,26.44l-.33-1.21-.23,1.27c-12.56-.46-26.18-.74-40.58-.88-14.44-.14-29.68-.16-45.41-.09l-.02-3.72c15.76-.07,31.01-.06,45.46.09,11.54.12,22.55.32,32.88.62-2.29-1.94-3.96-4.33-5.1-7.09-1.75-4.23-2.22-9.3-1.83-14.92-8.35,2.06-18.99,3.58-31.34,4.7-13.6,1.23-29.3,1.98-46.31,2.43l-.09-3.72c16.93-.44,32.54-1.18,46.06-2.41,13.45-1.22,24.8-2.91,33.28-5.26l2.66-.73-.31,2.73c-.69,6.12-.44,11.52,1.32,15.77,1.63,3.93,4.62,6.93,9.47,8.67,29.1-8.11,55.21-16.71,76.56-26.11,21.33-9.39,37.84-19.53,47.71-30.72l1.11-.6c16.03-2.48,27.8-4.97,36.53-7.45,8.59-2.45,14.14-4.87,17.88-7.27l1.68-1.08.96,1.76c45.1,82.75,118.07,74.2,173.38,67.72,20.58-2.41,38.76-4.54,52.48-1.68-10.2-7.99-30.61-6.16-53.25-4.13-34.65,3.11-74.3,6.68-93.61-23.27l3.13-2.01c15.43,23.93,45.67,24.93,75.09,22.84l-.21-2.72c-1.48-19.01-2.88-36.99,2.02-56.79l3.61.89Z"/>
  <path class="cls-5" d="m546.72,298.54c-3.07-7.33-1-15.54,4.57-20.6-.32-.58-.62-1.19-.89-1.82-3.9-9.31.48-20.02,9.79-23.92,2.5-1.05,5.11-1.5,7.66-1.42,1.66-4.69,5.22-8.69,10.17-10.77,9.31-3.9,20.02.48,23.92,9.79,21.15,18.14-.81,69.67-31.3,58.53-9.31,3.9-20.02-.48-23.92-9.79Z"/>
  <path class="cls-6" d="m544.38,298.99c-1.54-3.94-1.78-8.09-.93-11.96.79-3.55,2.5-6.87,4.99-9.56l-.2-.46c-2.2-5.24-2.06-10.88-.06-15.77,2-4.89,5.86-9.02,11.11-11.22,1.38-.58,2.8-1,4.24-1.26.91-.17,1.82-.27,2.73-.32.94-2.1,2.23-4.05,3.84-5.75,1.92-2.03,4.29-3.71,7.03-4.86,5.24-2.2,10.88-2.06,15.77-.06,4.73,1.93,8.74,5.61,10.99,10.6,7.14,6.41,9.6,16.3,8.56,26.39-.65,6.36-2.7,12.81-5.82,18.51-3.15,5.75-7.42,10.76-12.49,14.18-6.69,4.51-14.74,6.26-23.45,3.36-5,1.84-10.31,1.62-14.93-.28-4.88-2-9.01-5.87-11.21-11.11l-.18-.45h0Zm3.64-10.95c-.69,3.1-.45,6.44.87,9.6l.02.06c1.7,4.03,4.88,6.99,8.63,8.53,3.78,1.54,8.14,1.65,12.2-.06l.44-.18h.86l.4.15c7.46,2.73,14.36,1.3,20.08-2.55,4.43-2.99,8.19-7.43,11-12.55,2.83-5.17,4.68-11,5.27-16.73.91-8.85-1.2-17.42-7.37-22.72l-.43-.37-.22-.52c-1.7-4.06-4.88-7.04-8.65-8.58-3.77-1.54-8.14-1.65-12.21.06-2.11.89-3.94,2.18-5.41,3.74-1.54,1.63-2.7,3.56-3.44,5.64l-.57,1.62-1.71-.06c-1.13-.04-2.27.05-3.41.26-1.09.2-2.19.53-3.28.98-4.06,1.7-7.04,4.88-8.58,8.65-1.54,3.77-1.65,8.14.06,12.21l.36.8.41.79.9,1.63-1.37,1.24c-2.47,2.24-4.15,5.18-4.85,8.36Z"/>
  <path class="cls-3" d="m572.22,273.67c4.99,1.36,19.38,3.12,24.06-3.18,4.98-6.71-4.88-22.95,4.93-35.85-1.58,24.01,57.4,44.73,27.37,78.66-25.76,32.02-60.35-10.16-80.47-.98,5.77-9.61,13.3-11.19,22.32-13.87,11.8-3.52,12.26-3.92,7.09-14.14-1.64-3.24-3.34-6.63-5.3-10.64Z"/>
  <path class="cls-6" d="m572.81,271.47c2.85.77,8.91,1.69,14.22.99,3.16-.42,5.99-1.39,7.42-3.32,1.54-2.07,1.08-6.11.56-10.81-.86-7.65-1.89-16.81,4.39-25.06l4.08,1.52c-.55,8.27,7.5,16.68,15.96,25.52,14.74,15.41,30.65,32.04,10.92,54.42-16.76,20.83-36.56,12.46-54.27,4.97-10.42-4.41-20.06-8.48-27.02-5.31l-2.89-3.23c5.81-9.67,13.06-11.79,21.68-14.31l1.94-.57c5.29-1.58,8.03-2.43,8.54-3.42.45-.87-.6-3.11-2.83-7.52l-2.54-5.04-4.98-10.13,4.84,1.31h0Zm14.81,5.49c-3.84.51-8,.27-11.34-.19l3.26,6.51c2.94,5.81,4.24,8.89,2.81,11.65-1.37,2.65-4.77,3.76-11.28,5.7l-1.96.57c-5.9,1.73-11.08,3.24-15.38,7.53,7.28-.33,15.44,3.12,24.1,6.79,16.23,6.86,34.36,14.53,48.97-3.63l.07-.08c17.08-19.3,2.65-34.38-10.72-48.36-6.92-7.24-13.58-14.2-16.15-21.58-1.67,5.34-1.04,11.01-.48,15.97.63,5.65,1.18,10.5-1.43,14.01-2.28,3.07-6.21,4.55-10.48,5.12Z"/>
  <path class="cls-5" d="m596.44,342.47c-1.24-7.86,2.72-15.33,9.34-18.92-.18-.65-.32-1.31-.43-1.98-1.58-9.97,5.23-19.33,15.2-20.91,2.68-.43,5.32-.24,7.78.45,2.73-4.16,7.13-7.21,12.44-8.04,9.97-1.58,19.33,5.23,20.91,15.2,16.23,22.65-17.35,67.48-44.32,49.41-9.97,1.58-19.33-5.23-20.91-15.2Z"/>
  <path class="cls-6" d="m594.2,342.79c-.68-4.35.05-8.59,1.86-12.26,1.61-3.27,4.07-6.08,7.14-8.1l-.09-.52c-.88-5.61.58-11.04,3.67-15.29,3.09-4.25,7.81-7.32,13.41-8.21,1.5-.24,2.97-.31,4.4-.23.94.05,1.86.17,2.77.35,1.41-1.82,3.13-3.41,5.1-4.69,2.33-1.51,5.02-2.57,7.95-3.03,5.6-.88,11.04.58,15.28,3.67,4.11,2.99,7.13,7.5,8.12,12.87,5.41,7.91,5.46,18.08,2.06,27.62-2.14,6-5.66,11.78-10.05,16.57-4.43,4.83-9.75,8.68-15.47,10.79-7.56,2.78-15.77,2.57-23.53-2.32-5.29.61-10.38-.86-14.4-3.79-4.25-3.09-7.33-7.81-8.21-13.41v-.03h0Zm5.94-10.24c-1.41,2.86-1.98,6.17-1.45,9.57.69,4.36,3.09,8.03,6.4,10.44,3.32,2.41,7.55,3.56,11.92,2.87l.35-.04,1.27.39c6.61,4.43,13.68,4.69,20.17,2.3,5.03-1.85,9.75-5.27,13.69-9.58,3.98-4.34,7.16-9.58,9.11-15.02,2.99-8.4,2.99-17.25-1.77-23.89l-.39-.97c-.69-4.36-3.09-8.03-6.4-10.44-3.32-2.41-7.56-3.56-11.92-2.87-2.27.36-4.36,1.18-6.17,2.36-1.89,1.22-3.49,2.82-4.71,4.69l-.91,1.39-1.6-.45c-1.09-.3-2.22-.5-3.37-.56-1.13-.07-2.29-.01-3.44.17-4.36.69-8.03,3.08-10.44,6.4-2.41,3.32-3.56,7.55-2.87,11.91l.17.88.21.86.48,1.74-1.58.86c-2.94,1.59-5.28,4.06-6.73,7Z"/>
  <path class="cls-3" d="m627.11,324.37c4.53,2.51,18.08,7.64,24.13,2.64,6.43-5.33.71-23.45,13.31-33.65-7.25,22.94,45.12,57.09,7.88,82.92-32.64,24.97-56.2-24.22-77.93-20.09,7.89-7.96,15.57-7.71,24.97-8.17,12.29-.61,12.84-.89,10.25-12.05-.82-3.53-1.67-7.23-2.62-11.59Z"/>
  <path class="cls-6" d="m628.21,322.38c2.58,1.42,8.25,3.75,13.58,4.34,3.18.35,6.16.07,8.01-1.46,1.99-1.65,2.51-5.68,3.11-10.35.98-7.65,2.16-16.8,10.22-23.32l3.6,2.46c-2.49,7.9,3.32,17.98,9.43,28.58,10.66,18.48,22.15,38.41-2.34,55.46-21.24,16.25-38.47,3.41-53.9-8.08-9.07-6.76-17.47-13.01-24.99-11.58l-2.03-3.83c7.94-8.01,15.48-8.34,24.46-8.74l2.02-.09c5.51-.27,8.37-.45,9.11-1.29.64-.74.15-3.16-.96-7.98l-1.26-5.5-1.37-6.12-1.07-4.9,4.39,2.43h0Zm13.1,8.86c-3.85-.42-7.85-1.64-10.98-2.88l1.63,7.11c1.47,6.33,2,9.64-.05,11.99-1.96,2.24-5.52,2.51-12.31,2.84l-2.04.09c-6.13.27-11.52.52-16.72,3.65,7.14,1.41,14.25,6.71,21.79,12.32,14.13,10.52,29.92,22.28,48.44,8.12l.09-.06c21.17-14.68,10.74-32.77,1.08-49.52-5-8.67-9.81-17.02-10.55-24.8-2.9,4.79-3.63,10.44-4.26,15.39-.73,5.64-1.35,10.5-4.72,13.29-2.94,2.44-7.11,2.94-11.39,2.48Z"/>
  <path class="cls-5" d="m629.12,391.53c.8-7.91,6.53-14.14,13.84-15.93,0-.67.02-1.35.09-2.03,1.01-10.04,9.97-17.37,20.01-16.35,2.7.27,5.21,1.12,7.41,2.41,3.7-3.33,8.73-5.15,14.07-4.62,10.04,1.01,17.37,9.97,16.36,20.02,9.94,26.04-33.94,60.85-55.43,36.51-10.04-1.01-17.37-9.97-16.35-20.01Z"/>
  <path class="cls-6" d="m626.86,391.3c.44-4.39,2.23-8.32,4.92-11.41,2.38-2.75,5.48-4.84,8.96-6.01l.05-.53c.57-5.64,3.38-10.53,7.45-13.86,4.07-3.32,9.41-5.1,15.05-4.53,1.51.15,2.95.46,4.32.9.89.29,1.75.64,2.58,1.04,1.84-1.41,3.91-2.51,6.14-3.24,2.64-.86,5.5-1.21,8.44-.91,5.65.57,10.53,3.37,13.86,7.45,3.22,3.94,4.98,9.07,4.58,14.51,3.22,9.02.68,18.87-5.04,27.24-3.6,5.26-8.47,9.96-13.93,13.48-5.5,3.54-11.63,5.9-17.71,6.49-8.01.77-15.9-1.53-22.17-8.22-5.27-.76-9.82-3.48-12.97-7.33-3.33-4.06-5.1-9.41-4.54-15.05h0Zm8.36-8.44c-2.1,2.41-3.49,5.47-3.84,8.88-.44,4.39.94,8.56,3.54,11.73,2.59,3.18,6.39,5.36,10.78,5.8l1.48.76c5.27,5.97,12.04,8.02,18.93,7.36,5.33-.51,10.76-2.63,15.68-5.79,4.96-3.19,9.37-7.45,12.63-12.21,5.03-7.36,7.27-15.92,4.36-23.55l-.13-1.03c.44-4.4-.94-8.56-3.53-11.74-2.59-3.17-6.39-5.35-10.78-5.79-2.29-.23-4.53.04-6.59.71-2.13.7-4.09,1.85-5.74,3.33l-1.23,1.11-1.44-.84c-.97-.57-2.01-1.04-3.12-1.4-1.08-.35-2.2-.59-3.36-.71-4.4-.44-8.57.94-11.74,3.54-3.17,2.59-5.35,6.39-5.79,10.78l-.07.89-.02.89.02,1.8-1.75.43c-3.24.79-6.13,2.58-8.28,5.06Z"/>
  <path class="cls-3" d="m663.39,381.82c3.74,3.58,15.54,11.99,22.66,8.68,7.58-3.52,6.65-22.5,21.43-29.16-12.84,20.35,29.12,66.69-13.46,82.19-37.92,15.85-48.19-37.72-70.26-39.25,9.66-5.69,17.02-3.49,26.23-1.55,12.05,2.54,12.64,2.4,12.98-9.05.1-3.63.23-7.42.41-11.88Z"/>
  <path class="cls-6" d="m664.95,380.18c2.12,2.03,7.01,5.72,12.03,7.64,2.99,1.15,5.94,1.63,8.12.63,2.34-1.08,3.86-4.85,5.64-9.22,2.89-7.14,6.36-15.68,15.81-19.94l2.86,3.28c-4.42,7-1.36,18.23,1.86,30.04,5.61,20.58,11.65,42.78-16.37,53.04-24.67,10.31-38.08-6.49-50.08-21.53-7.05-8.84-13.58-17.02-21.2-17.55l-1-4.23c9.72-5.73,17.1-4.14,25.87-2.24l1.98.43c5.39,1.14,8.2,1.69,9.14,1.06.81-.55.96-3.01,1.1-7.95l.18-5.64.24-6.27.21-5.02,3.62,3.46h0Zm10.41,11.89c-3.61-1.38-7.17-3.58-9.89-5.59l-.23,7.28c-.19,6.51-.52,9.85-3.1,11.6-2.46,1.66-5.97,1.02-12.62-.38l-2-.42c-6.01-1.3-11.29-2.44-17.11-.73,6.55,3.18,12.08,10.11,17.95,17.46,10.99,13.77,23.26,29.15,44.77,20.16l.1-.03c24.21-8.82,18.72-28.96,13.64-47.62-2.63-9.66-5.16-18.96-3.9-26.67-4.02,3.89-6.16,9.18-8.04,13.81-2.13,5.27-3.97,9.8-7.95,11.64-3.47,1.61-7.63,1.04-11.64-.5Z"/>
  <path class="cls-5" d="m657.24,453.96c2.77-7.46,9.89-12.03,17.42-11.91.16-.65.36-1.3.6-1.94,3.52-9.46,14.04-14.28,23.5-10.77,2.55.95,4.76,2.4,6.56,4.2,4.42-2.29,9.75-2.78,14.78-.91,9.46,3.52,14.28,14.04,10.77,23.5,3.04,27.7-48.21,50.3-62.85,21.32-9.46-3.51-14.28-14.04-10.77-23.5Z"/>
  <path class="cls-6" d="m655.12,453.16c1.53-4.14,4.26-7.48,7.64-9.8,3-2.05,6.52-3.29,10.19-3.55l.18-.51c1.98-5.32,5.93-9.33,10.7-11.52,4.78-2.19,10.39-2.55,15.71-.58,1.42.53,2.74,1.19,3.95,1.97.79.5,1.53,1.06,2.24,1.66,2.13-.9,4.41-1.45,6.75-1.59,2.77-.17,5.62.22,8.4,1.26,5.31,1.97,9.33,5.92,11.52,10.7,2.12,4.62,2.53,10.03.77,15.2.84,9.55-4.11,18.43-11.76,25.08-4.82,4.18-10.72,7.49-16.89,9.52-6.21,2.04-12.74,2.78-18.76,1.8-7.96-1.28-15.02-5.5-19.38-13.56-4.9-2.07-8.62-5.84-10.69-10.37-2.19-4.78-2.56-10.39-.58-15.71h0Zm10.2-6.04c-2.63,1.8-4.76,4.41-5.95,7.63-1.54,4.14-1.25,8.52.46,12.24,1.7,3.72,4.83,6.8,8.98,8.34l1.24,1.1c3.59,7.11,9.62,10.79,16.44,11.89,5.29.85,11.08.18,16.65-1.64,5.6-1.84,10.95-4.84,15.31-8.62,6.73-5.86,11.06-13.58,10.17-21.69l.13-1.03c1.54-4.14,1.25-8.52-.46-12.24-1.7-3.72-4.83-6.8-8.97-8.34-2.15-.8-4.38-1.1-6.55-.97-2.24.14-4.42.75-6.4,1.78l-1.47.76-1.18-1.18c-.79-.79-1.68-1.52-2.66-2.14-.96-.61-1.99-1.13-3.08-1.54-4.14-1.54-8.52-1.25-12.24.46-3.72,1.7-6.8,4.83-8.34,8.97l-.29.84-.23.86-.44,1.75-1.79-.03c-3.34-.05-6.59.95-9.31,2.81Z"/>
  <path class="cls-3" d="m692.85,453.22c2.72,4.4,12.01,15.53,19.73,14.13,8.22-1.49,12.12-20.09,28.1-22.8-17.57,16.44,11.33,71.88-33.79,76.13-40.69,5.76-37.1-48.67-58.06-55.72,10.78-3.07,17.35.92,25.77,5.13,11.01,5.5,11.63,5.52,14.84-5.48,1.02-3.48,2.1-7.12,3.4-11.39Z"/>
  <path class="cls-6" d="m694.78,452.03c1.54,2.5,5.34,7.3,9.71,10.43,2.6,1.86,5.33,3.08,7.69,2.66,2.53-.46,4.96-3.72,7.78-7.51,4.61-6.18,10.12-13.57,20.34-15.3l1.92,3.9c-6.03,5.65-5.91,17.29-5.78,29.54.23,21.33.47,44.33-29.24,47.18-26.46,3.75-35.19-15.9-43.01-33.48-4.59-10.34-8.84-19.9-16.09-22.33l.1-4.34c10.85-3.08,17.59.32,25.6,4.37l1.8.91c4.94,2.46,7.52,3.71,8.58,3.34.93-.32,1.69-2.67,3.07-7.41l1.59-5.42,3.29-10.8,2.63,4.27h0Zm7.06,14.13c-3.14-2.25-6.02-5.27-8.14-7.9l-2.07,6.98c-1.83,6.25-2.99,9.4-5.92,10.44-2.8.99-6.04-.52-12.12-3.55l-1.82-.92c-5.48-2.77-10.3-5.21-16.37-5.02,5.53,4.74,9.13,12.84,12.95,21.43,7.15,16.1,15.14,34.08,38.24,30.82h.11c25.64-2.42,25.42-23.3,25.22-42.65-.1-10.01-.21-19.65,2.98-26.79-4.88,2.75-8.29,7.32-11.27,11.33-3.39,4.56-6.31,8.48-10.63,9.26-3.77.68-7.65-.92-11.14-3.42Z"/>
  <path class="cls-5" d="m666.97,514.15c4.68-6.43,12.77-8.92,19.98-6.78.33-.58.7-1.15,1.1-1.7,5.93-8.16,17.37-9.97,25.53-4.04,2.2,1.6,3.93,3.59,5.18,5.82,4.87-1.02,10.14-.05,14.48,3.11,8.16,5.93,9.97,17.37,4.04,25.53-4.54,27.5-59.98,35.45-66.28,3.6-8.16-5.93-9.97-17.37-4.04-25.53Z"/>
  <path class="cls-6" d="m665.12,512.81c2.59-3.57,6.12-6.06,10.01-7.38,3.45-1.17,7.17-1.41,10.77-.67l.31-.44c3.33-4.59,8.22-7.39,13.42-8.21,5.2-.82,10.7.34,15.28,3.67,1.22.89,2.31,1.88,3.28,2.96.62.7,1.19,1.44,1.71,2.2,2.29-.29,4.63-.2,6.92.29,2.73.58,5.37,1.73,7.76,3.47,4.58,3.33,7.39,8.22,8.21,13.42.8,5.04-.26,10.37-3.36,14.86-1.78,9.41-8.93,16.63-18.08,20.97-5.76,2.73-12.32,4.33-18.82,4.61-6.54.29-13.02-.76-18.56-3.31-7.31-3.38-12.98-9.34-15.01-18.28-4.16-3.31-6.72-7.95-7.5-12.88-.82-5.19.34-10.7,3.67-15.28h0Zm11.47-3.07c-3.02,1.02-5.76,2.96-7.78,5.74-2.6,3.58-3.51,7.88-2.87,11.92.64,4.04,2.82,7.83,6.4,10.43l.9,1.41c1.54,7.81,6.35,12.98,12.63,15.88,4.87,2.25,10.62,3.16,16.47,2.9,5.89-.26,11.85-1.71,17.07-4.19,8.06-3.82,14.31-10.08,15.63-18.13l.4-.97c2.6-3.58,3.51-7.87,2.87-11.91-.64-4.04-2.82-7.84-6.4-10.44-1.87-1.36-3.93-2.25-6.04-2.7-2.21-.47-4.47-.47-6.65-.02l-1.63.34-.82-1.45c-.55-.98-1.22-1.92-1.99-2.78-.75-.84-1.6-1.61-2.55-2.3-3.58-2.6-7.88-3.51-11.92-2.87-4.03.64-7.83,2.82-10.43,6.4l-.51.73-.46.76-.89,1.57-1.72-.51c-3.2-.95-6.61-.86-9.72.2Z"/>
  <path class="cls-3" d="m701.45,523.04c1.43,4.97,7.38,18.19,15.2,18.92,8.32.78,17.08-16.08,33.2-14.38-21.35,11.1-8.46,72.28-53.05,64.21-40.74-5.42-22.62-56.87-40.9-69.31,11.21-.05,16.46,5.56,23.44,11.88,9.13,8.26,9.71,8.45,15.77-1.28,1.92-3.08,3.94-6.29,6.35-10.05Z"/>
  <path class="cls-6" d="m703.64,522.41c.81,2.83,3.18,8.48,6.53,12.66,2,2.49,4.3,4.4,6.68,4.63,2.58.24,5.79-2.24,9.53-5.13,6.1-4.71,13.4-10.34,23.7-9.26l.82,4.28c-7.34,3.81-10.36,15.05-13.53,26.87-5.53,20.6-11.5,42.83-40.87,37.57-26.51-3.53-29.63-24.79-32.41-43.83-1.64-11.2-3.16-21.55-9.47-25.85l1.26-4.15c11.27-.05,16.84,5.05,23.47,11.11l1.5,1.36c4.08,3.7,6.22,5.59,7.35,5.52.98-.06,2.34-2.12,4.96-6.31l3-4.78,3.36-5.29,2.71-4.23,1.39,4.83h0Zm2.99,15.51c-2.42-3.02-4.39-6.71-5.72-9.8l-3.87,6.17c-3.44,5.52-5.4,8.24-8.52,8.45-2.96.2-5.67-2.13-10.71-6.7l-1.51-1.37c-4.53-4.16-8.52-7.79-14.41-9.25,4.06,6.05,5.34,14.82,6.71,24.13,2.55,17.43,5.4,36.91,28.5,39.98l.11.02c25.35,4.59,30.77-15.57,35.78-34.26,2.59-9.67,5.09-18.98,10.08-25-5.43,1.34-9.95,4.82-13.9,7.87-4.5,3.47-8.37,6.46-12.72,6.05-3.81-.36-7.13-2.95-9.81-6.3Z"/>
  <path class="cls-5" d="m656.53,569.18c7.2-3.39,15.48-1.68,20.78,3.67.57-.35,1.16-.67,1.78-.97,9.13-4.3,20.02-.39,24.33,8.74,1.16,2.46,1.72,5.04,1.75,7.59,4.76,1.45,8.91,4.83,11.2,9.69,4.3,9.13.39,20.02-8.74,24.33-17.2,21.92-69.64,2.23-59.84-28.72-4.3-9.13-.39-20.02,8.74-24.33Z"/>
  <path class="cls-6" d="m655.56,567.13c3.99-1.88,8.28-2.37,12.31-1.66,3.58.63,6.97,2.21,9.77,4.59l.48-.23c5.13-2.42,10.76-2.53,15.71-.75,4.95,1.78,9.23,5.45,11.64,10.57.64,1.36,1.12,2.76,1.45,4.17.21.91.35,1.83.43,2.76,2.15.85,4.16,2.05,5.93,3.58,2.11,1.82,3.88,4.1,5.13,6.77,2.42,5.13,2.53,10.76.75,15.71-1.72,4.79-5.21,8.95-10.08,11.4-6.08,7.41-15.82,10.29-25.94,9.7-6.37-.37-12.9-2.13-18.73-5-5.87-2.89-11.05-6.93-14.68-11.84-4.79-6.48-6.89-14.43-4.37-23.25-2.06-4.9-2.07-10.2-.38-14.88,1.78-4.95,5.44-9.23,10.57-11.64h0Zm11.53,2.83c-3.15-.55-6.49-.18-9.59,1.29-4,1.89-6.86,5.21-8.24,9.06-1.38,3.85-1.3,8.24.59,12.24l.12,1.65c-2.41,7.6-.68,14.45,3.43,20.01,3.18,4.31,7.79,7.88,13.04,10.47,5.29,2.6,11.21,4.2,16.97,4.54,8.91.52,17.4-1.96,22.43-8.38l.82-.65c4-1.88,6.86-5.21,8.24-9.06s1.3-8.24-.59-12.24c-.98-2.09-2.36-3.86-4-5.28-1.7-1.47-3.69-2.56-5.81-3.21l-1.59-.49-.02-1.67c-.01-1.11-.15-2.26-.41-3.4-.25-1.1-.63-2.18-1.12-3.24-1.89-4-5.21-6.86-9.06-8.24-3.85-1.38-8.24-1.3-12.24.59l-.79.4c-.24.13-.5.28-.78.45l-1.53.94-1.26-1.27c-2.35-2.37-5.38-3.93-8.61-4.5Z"/>
  <path class="cls-3" d="m682.49,593.57c-1.14,5.05-2.28,19.5,4.22,23.9,6.92,4.69,22.71-5.88,36.03,3.36-24.05-.54-42.18,59.3-77.39,30.78-33.11-24.35,7.52-60.73-2.53-80.44,9.85,5.35,11.76,12.8,14.83,21.69,4.03,11.63,4.45,12.08,14.44,6.47,3.16-1.78,6.48-3.63,10.4-5.76Z"/>
  <path class="cls-6" d="m684.7,594.06c-.65,2.86-1.29,8.96-.35,14.25.55,3.15,1.65,5.93,3.63,7.27,2.14,1.45,6.16.82,10.82.09,7.61-1.2,16.72-2.62,25.23,3.29l-1.33,4.14c-8.27-.18-16.33,8.22-24.8,17.06-14.75,15.4-30.67,32.01-53.9,13.28-21.54-15.84-14.04-35.99-7.33-54.01,3.95-10.6,7.6-20.4,4.12-27.22l3.11-3.03c9.91,5.38,12.35,12.53,15.24,21.03l.66,1.92c1.8,5.2,2.77,7.89,3.78,8.37.89.41,3.08-.73,7.39-3.15l4.93-2.75,5.5-3.02,4.4-2.4-1.1,4.89h0Zm-4.84,15.04c-.67-3.8-.61-7.98-.3-11.34l-6.37,3.55c-5.68,3.19-8.7,4.63-11.52,3.31-2.69-1.25-3.95-4.6-6.18-11.03l-.66-1.93c-1.98-5.82-3.72-10.92-8.18-15.03.64,7.25-2.45,15.56-5.73,24.37-6.15,16.51-13.02,34.96,5.76,48.76l.09.07c20.02,16.22,34.46,1.14,47.84-12.83,6.93-7.23,13.59-14.19,20.86-17.07-5.41-1.44-11.05-.56-15.98.21-5.61.88-10.44,1.64-14.06-.81-3.17-2.15-4.83-6.01-5.57-10.24Z"/>
  <path class="cls-5" d="m621.43,611.21c7.91-.88,15.19,3.43,18.47,10.2.65-.15,1.32-.26,2-.34,10.03-1.11,19.07,6.12,20.18,16.15.3,2.7,0,5.33-.81,7.75,4.03,2.92,6.86,7.46,7.46,12.8,1.11,10.03-6.12,19.07-16.15,20.18-23.38,15.16-66.61-20.46-47.3-46.57-1.11-10.03,6.12-19.07,16.15-20.18Z"/>
  <path class="cls-6" d="m621.18,608.95c4.38-.48,8.6.45,12.18,2.43,3.18,1.76,5.88,4.35,7.76,7.51l.53-.07c5.63-.63,10.99,1.1,15.1,4.38,4.11,3.29,6.97,8.14,7.59,13.78.16,1.49.16,2.96.02,4.4-.1.94-.26,1.86-.47,2.75,1.76,1.5,3.27,3.29,4.45,5.32,1.4,2.4,2.33,5.13,2.66,8.07.62,5.64-1.1,10.99-4.39,15.1-3.19,3.98-7.84,6.79-13.25,7.53-8.15,5.03-18.3,4.59-27.68.76-5.9-2.41-11.51-6.19-16.09-10.8-4.62-4.64-8.22-10.14-10.06-15.96-2.43-7.68-1.84-15.87,3.4-23.4-.36-5.3,1.35-10.32,4.46-14.21,3.29-4.11,8.14-6.97,13.78-7.59h0Zm9.99,6.41c-2.8-1.54-6.08-2.27-9.49-1.89-4.4.49-8.18,2.71-10.73,5.9-2.56,3.19-3.89,7.37-3.41,11.77l-.44,1.6c-4.73,6.4-5.31,13.44-3.23,20.04,1.62,5.11,4.82,9.98,8.94,14.12,4.16,4.18,9.25,7.61,14.59,9.8,8.25,3.38,17.09,3.78,23.94-.66l1-.3v-.06c4.39-.49,8.17-2.71,10.72-5.9,2.56-3.19,3.9-7.37,3.41-11.77-.25-2.3-.98-4.42-2.07-6.29-1.13-1.94-2.66-3.61-4.46-4.91l-1.35-.98.52-1.58c.36-1.09.61-2.21.73-3.34.12-1.12.12-2.27-.01-3.44-.49-4.4-2.71-8.18-5.9-10.73-3.2-2.56-7.37-3.89-11.77-3.41-.29.03-.58.07-.87.12l-.88.17-1.76.4-.78-1.62c-1.45-3-3.81-5.45-6.68-7.04Z"/>
  <path class="cls-3" d="m638.08,642.69c-2.71,4.41-8.47,17.71-3.75,23.98,5.03,6.68,23.4,1.8,32.99,14.86-22.58-8.31-59.12,42.42-83.19,4.03-23.43-33.76,26.8-55.02,23.68-76.91,7.58,8.25,6.97,15.92,7,25.33.04,12.31.3,12.87,11.56,10.8,3.57-.65,7.31-1.33,11.7-2.08Z"/>
  <path class="cls-6" d="m640.01,643.88c-1.54,2.5-4.13,8.06-4.96,13.35-.49,3.16-.35,6.15,1.09,8.07,1.54,2.05,5.55,2.76,10.2,3.58,7.59,1.34,16.67,2.94,22.81,11.3l-2.61,3.48c-7.76-2.85-18.11,2.48-28.98,8.1-18.95,9.79-39.4,20.34-55.29-4.92-15.24-21.96-1.62-38.59,10.58-53.47,7.17-8.75,13.8-16.84,12.72-24.41l3.92-1.86c7.63,8.3,7.62,15.85,7.6,24.84v2.03c.02,5.51.06,8.38.88,9.16.7.68,3.14.3,8.01-.59l5.55-1.01,11.13-1.91-2.63,4.27h0Zm-9.44,12.66c.6-3.82,2-7.76,3.39-10.83l-7.18,1.29c-6.4,1.18-9.73,1.56-11.98-.6-2.14-2.05-2.24-5.63-2.26-12.43v-2.03c.01-6.14.02-11.54-2.87-16.88-1.75,7.07-7.36,13.93-13.33,21.2-11.17,13.62-23.64,28.85-10.35,48.01l.05.09c13.68,21.83,32.24,12.25,49.42,3.37,8.89-4.59,17.46-9.01,25.26-9.39-4.64-3.11-10.26-4.1-15.18-4.97-5.6-.99-10.41-1.84-13.05-5.34-2.3-3.05-2.61-7.24-1.94-11.49Z"/>
  <path class="cls-5" d="m562.56,641.42c7.94-.51,15.01,4.13,17.97,11.05.66-.12,1.33-.2,2.01-.24,10.07-.64,18.76,7,19.41,17.07.17,2.71-.25,5.32-1.17,7.7,3.89,3.1,6.51,7.77,6.86,13.13.64,10.07-7,18.76-17.07,19.41-24.06,14.06-65.58-23.54-45.08-48.71-.64-10.07,7-18.76,17.07-19.41Z"/>
  <path class="cls-6" d="m562.56,639.14c4.35-.25,8.47.88,11.92,3,3.09,1.9,5.66,4.61,7.39,7.86l.54-.04c5.66-.36,10.94,1.61,14.88,5.08,3.95,3.47,6.57,8.46,6.94,14.12.1,1.51.03,2.98-.19,4.4-.14.93-.35,1.84-.61,2.73,1.68,1.57,3.11,3.43,4.19,5.51,1.29,2.47,2.1,5.24,2.29,8.19.36,5.66-1.61,10.94-5.08,14.89-3.36,3.82-8.13,6.4-13.57,6.89-8.38,4.65-18.5,3.75-27.69-.52-5.77-2.69-11.2-6.73-15.57-11.54-4.4-4.85-7.74-10.51-9.31-16.41-2.07-7.78-1.09-15.94,4.49-23.21-.12-5.33,1.82-10.26,5.11-14,3.47-3.95,8.46-6.57,14.12-6.93h.14Zm9.53,6.87c-2.72-1.67-5.96-2.55-9.39-2.33h-.01c-4.4.29-8.27,2.33-10.97,5.4-2.71,3.07-4.24,7.18-3.96,11.59v.14s-.51,1.43-.51,1.43c-5.03,6.18-5.94,13.19-4.16,19.88,1.38,5.18,4.35,10.19,8.27,14.52,3.95,4.36,8.87,8.02,14.11,10.46,8.09,3.76,16.9,4.58,23.95.46l1-.3c4.4-.28,8.28-2.33,10.99-5.4,2.71-3.08,4.24-7.18,3.96-11.59-.15-2.31-.77-4.46-1.77-6.38-1.04-1.99-2.49-3.73-4.23-5.12l-1.31-1.04.6-1.55c.4-1.05.7-2.16.88-3.31.17-1.12.22-2.28.15-3.44-.28-4.41-2.33-8.28-5.4-10.99-3.08-2.7-7.18-4.24-11.59-3.96l-.88.08-.88.13-1.77.31-.71-1.66c-1.31-3.06-3.55-5.62-6.35-7.34Z"/>
  <path class="cls-3" d="m448.74,762.36h-20.24c-3.89-23.32,47.08-44.83,101.69-53.46,2.25,4.27,1.5,4.79,3.75,9.07-38.98,5.06-90.37,22.51-85.2,44.39Z"/>
  <path class="cls-7" d="m448.74,764.23h-21.82l-.25-1.57-.02-.13h0c-1.95-12.37,9.82-24,29.04-33.62,18.65-9.33,44.45-16.89,71.31-21.37.7-.12,1.67-.27,2.91-.47l1.31-.21.62,1.18c1.2,2.29,1.6,3.57,2,4.85.35,1.12.7,2.24,1.74,4.22l1.24,2.36-2.66.34c-7.76,1.01-16.06,2.52-24.34,4.48-15.84,3.75-31.44,9.09-42.79,15.57-10.86,6.2-17.7,13.34-16.72,20.89.05.36.12.76.22,1.19l.54,2.29h-2.36Zm-18.57-3.73h16.4c-.74-9.02,6.79-17.11,18.63-23.87,11.67-6.67,27.62-12.14,43.79-15.97,7.45-1.76,14.98-3.17,22.17-4.19-.4-.97-.64-1.72-.88-2.48-.27-.88-.55-1.75-1.15-3.04l-1.54.25c-26.54,4.43-51.95,11.87-70.26,21.02-16.93,8.47-27.66,18.27-27.18,28.27Z"/>
  <path class="cls-3" d="m577.73,673.64c-2.91,4.27-9.29,17.29-4.86,23.78,4.71,6.9,23.29,2.88,32.27,16.38-22.17-9.35-61.03,39.63-83.29.16-21.84-34.82,29.33-53.71,27.23-75.73,7.19,8.59,6.23,16.22,5.82,25.62-.53,12.3-.3,12.87,11.05,11.32,3.6-.49,7.36-.99,11.79-1.53Z"/>
  <path class="cls-6" d="m579.61,674.92c-1.66,2.43-4.5,7.86-5.58,13.11-.64,3.13-.64,6.12.71,8.1,1.46,2.14,5.42,3.03,10.02,4.06,7.52,1.69,16.51,3.71,22.26,12.34l-2.78,3.35c-7.62-3.21-18.2,1.64-29.33,6.75-19.38,8.89-40.29,18.48-55-7.48-14.21-22.66.17-38.63,13.04-52.93,7.57-8.41,14.58-16.19,13.85-23.8l4-1.67c7.24,8.65,6.87,16.19,6.44,25.16l-.1,2.02c-.24,5.51-.33,8.38.44,9.19.68.71,3.13.45,8.04-.21l5.59-.75,6.22-.79,4.99-.61-2.83,4.15h0Zm-10.02,12.21c.78-3.79,2.36-7.66,3.89-10.66l-7.23.96c-6.45.88-9.79,1.1-11.93-1.16-2.05-2.16-1.98-5.73-1.69-12.52l.1-2.03c.3-6.15.56-11.53-2.08-17-2.07,6.98-8,13.57-14.29,20.55-11.79,13.09-24.96,27.72-12.58,47.46l.05.1c12.65,22.44,31.63,13.74,49.22,5.67,9.1-4.18,17.86-8.19,25.68-8.2-4.5-3.33-10.07-4.58-14.94-5.68-5.55-1.25-10.32-2.32-12.79-5.93-2.15-3.15-2.27-7.36-1.41-11.57Z"/>
  <path class="cls-2" d="m354.52,638.53c37.22,4.84,56.89,28.31,60.45,65.36-39.52-16.18-43.86-27.23-60.45-65.36Z"/>
  <path class="cls-2" d="m305.4,586.67c28.92,18.06,36.32,44.88,25.27,76.85-26.55-28.3-25.96-39.07-25.27-76.85Z"/>
  <path class="cls-2" d="m292.04,522.09c18.16,28.86,13.12,56.22-10.77,80.17-11.55-37.05-6.33-46.48,10.77-80.17Z"/>
  <path class="cls-2" d="m285.5,471.42c10.12,27.93.77,50.29-23.99,66.26-2.98-33.67,3.2-40.73,23.99-66.26Z"/>
  <path class="cls-2" d="m313.62,416.13c-4.13,26.81-21.42,40.63-48.26,42.58,12.37-28.29,20.42-31.24,48.26-42.58Z"/>
  <path class="cls-2" d="m330.69,379.76c-10.13,25.17-30.12,34.68-56.7,30.46,18.49-24.72,27.01-25.76,56.7-30.46Z"/>
  <path class="cls-2" d="m363.72,347.1c-15.36,22.37-36.94,27.31-61.96,17.42,23.42-20.12,31.96-19.28,61.96-17.42Z"/>
  <path class="cls-2" d="m404.79,308.32c-15.36,22.37-36.94,27.31-61.96,17.41,23.42-20.12,31.96-19.28,61.96-17.41Z"/>
  <path class="cls-2" d="m428.91,273.06c-14.53,22.91-35.92,28.64-61.28,19.66,22.67-20.96,31.23-20.43,61.28-19.66Z"/>
  <path class="cls-2" d="m367.72,256.12c-26.36,6.41-38.65,24.82-38.3,51.73,27.13-14.74,29.38-23.02,38.3-51.73Z"/>
  <path class="cls-2" d="m317.69,287.01c-26.41,13.42-34.86,36.06-27.74,64.57,25.14-22.46,25.45-31.82,27.74-64.57Z"/>
  <path class="cls-2" d="m267.59,325.24c-21.98,19.85-24.22,43.92-9.89,69.58,18.39-28.25,16.25-37.37,9.89-69.58Z"/>
  <path class="cls-2" d="m228.62,389.44c-14.97,25.56-9.84,49.18,11.55,69.32,9.01-32.48,4.22-40.53-11.55-69.32Z"/>
  <path class="cls-2" d="m211.49,450.68c-11.39,29.65-1.85,53.74,24.3,71.32,3.87-35.93-2.6-43.61-24.3-71.32Z"/>
  <path class="cls-2" d="m208.71,525.28c-7.64,34.1,6.61,58.79,37.88,73.73-1.54-39.73-9.82-47.05-37.88-73.73Z"/>
  <path class="cls-2" d="m214.8,604.13c5.93,45.11,41.8,81.34,79.38,65.91-24.31-36.87-33.13-45.85-79.38-65.91Z"/>
  <path class="cls-2" d="m264.34,692.04c27.07,36.56,63.53,43.56,104.87,25.48-40.45-32.31-54.7-30.4-104.87-25.48Z"/>
  <path class="cls-6" d="m320.1,321.34c5.78,1.55,11.59,2.34,17.42,2.44,17.24.29,35.57-4.85,52.47-7.81-17.12,4.9-34.49,11.83-52.53,11.52-6.16-.1-12.27-.93-18.33-2.56l.96-3.6Z"/>
  <path class="cls-6" d="m405.82,309.02c-7.73,11.26-17.03,18.21-27.55,21.17-10.84,3.05-22.93,1.84-35.9-3.29l-1.91-.76,1.56-1.34c23.47-20.16,32.21-19.62,61.59-17.79l1.26.08,2.19.14-1.24,1.8h0Zm-28.22,18.77c9.39-2.64,17.77-8.68,24.89-18.37-27.16-1.69-35.98-2.01-57.26,15.9,11.72,4.3,22.61,5.21,32.37,2.47Z"/>
  <path class="cls-6" d="m323.53,319.96c1.05-4.3,2.48-8.48,4.26-12.55,5.7-13.04,15.44-23.61,24.09-34.77-6.93,11.81-15.19,23.69-20.68,36.25-1.69,3.87-3.05,7.86-4.06,11.95l-3.61-.89Z"/>
  <path class="cls-6" d="m365.88,257.89c-11.59,3.21-20.22,8.9-26.02,16.74-6.03,8.15-9.04,18.66-9.19,31.14,24.3-13.52,27.14-21.88,35.21-47.87h0Zm-28.01,15.26c6.5-8.78,16.3-15,29.57-18.23l2.12-.51-.65,2.08-.37,1.2c-8.73,28.12-11.33,36.48-38.52,51.25l-1.8.98-.03-2.05c-.18-13.94,2.98-25.67,9.68-34.72Z"/>
  <path class="cls-6" d="m287.14,360.07c.31-3.82.88-7.62,1.7-11.41,3.14-14.5,10.55-28.01,16.49-41.52-4.33,13.92-9.76,28.05-12.84,42.3-.78,3.62-1.33,7.26-1.62,10.91l-3.72-.29Z"/>
  <path class="cls-6" d="m316.29,289.15c-11.64,6.34-19.45,14.6-23.69,24.46-4.4,10.24-4.96,22.25-1.94,35.65,22.67-20.62,23.54-30.21,25.63-60.11h0Zm-25.97,23.48c4.7-10.94,13.54-19.98,26.81-26.72l1.95-.99-.15,2.18-.1,1.37c-2.23,32.03-2.9,41.56-28.06,64.04l-1.53,1.37-.5-1.99c-3.68-14.75-3.26-27.99,1.58-39.26Z"/>
  <path class="cls-6" d="m286.7,361.73c4.54.7,9.09.95,13.65.79,15.59-.54,31.57-5.32,46.78-8.45-15.26,4.93-30.47,11.6-46.66,12.16-4.82.17-9.59-.1-14.32-.82l.55-3.69Z"/>
  <path class="cls-6" d="m364.75,347.8c-7.73,11.26-17.03,18.21-27.55,21.16-10.84,3.05-22.93,1.84-35.9-3.29l-1.91-.76,1.56-1.34c23.47-20.16,32.21-19.61,61.59-17.79l1.26.08,2.19.13-1.24,1.8h0Zm-28.22,18.77c9.39-2.64,17.77-8.68,24.89-18.37-27.16-1.69-35.98-2.01-57.26,15.9,11.72,4.3,22.61,5.22,32.37,2.47Z"/>
  <path class="cls-6" d="m258.49,409.46c-1.22-4.68-2.02-9.43-2.43-14.24-1.27-15.07,2.7-29.43,5.45-44.16-.88,14.38-2.95,29.45-1.74,43.85.39,4.63,1.15,9.17,2.31,13.61l-3.6.93Z"/>
  <path class="cls-6" d="m266.8,327.66c-9.58,9.16-14.96,19.18-16.47,29.8-1.57,11.04,1.03,22.78,7.46,34.92,16.49-25.83,14.82-35.31,9.02-64.72h0Zm-18.93,29.45c1.67-11.78,7.84-22.82,18.88-32.8l1.63-1.47.42,2.15.27,1.35c6.22,31.49,8.07,40.86-10.34,69.14l-1.12,1.72-1-1.8c-7.41-13.27-10.47-26.16-8.74-38.3Z"/>
  <path class="cls-6" d="m259.72,410.7c4.39-.36,8.71-1.11,12.97-2.25,12.64-3.36,24.92-9.69,36.94-14.75-11.74,7.02-22.65,14.79-36,18.35-4.48,1.19-9.02,1.99-13.62,2.36l-.29-3.71Z"/>
  <path class="cls-6" d="m331.84,380.22c-5.1,12.67-12.66,21.47-22.29,26.64-9.92,5.33-21.98,6.77-35.76,4.58l-2.03-.32,1.23-1.65c18.53-24.78,27.18-26.14,56.27-30.74l1.24-.2,2.16-.34-.82,2.03h0Zm-23.46,24.46c8.59-4.62,15.46-12.34,20.3-23.35-26.88,4.25-35.55,5.86-52.44,27.97,12.37,1.65,23.2.18,32.13-4.62Z"/>
  <path class="cls-6" d="m245.35,472.49c-2.57-4.08-4.76-8.37-6.61-12.84-5.32-12.91-6.08-26.35-7.85-40.08,3.52,12.75,6.24,26.41,11.29,38.66,1.76,4.28,3.86,8.37,6.31,12.27l-3.15,1.98Z"/>
  <path class="cls-6" d="m228.6,391.99c-6.37,11.62-8.48,22.8-6.71,33.39,1.83,11,7.86,21.4,17.64,31.04,7.93-29.61,3.48-38.14-10.92-64.43h0Zm-9.16,33.79c-1.96-11.74.59-24.13,8.11-36.97l1.1-1.89,1.05,1.92.66,1.2h0c15.43,28.15,20.02,36.53,11,69.04l-.55,1.98-1.5-1.41c-11.07-10.42-17.87-21.78-19.89-33.88Z"/>
  <path class="cls-6" d="m247.79,463.54c4.92-1.29,9.63-3.08,14.14-5.34,12.88-6.45,24.54-16.58,36.14-25.03-10.94,10.39-20.83,21.52-34.48,28.36-4.75,2.38-9.7,4.27-14.87,5.62l-.93-3.6Z"/>
  <path class="cls-6" d="m314.85,416.31c-2.08,13.49-7.44,23.79-15.63,31.02-8.45,7.45-19.87,11.61-33.77,12.62l-2.05.15.82-1.88c12.4-28.35,20.51-31.66,47.77-42.76l1.16-.47,2.03-.83-.34,2.16h0Zm-17.27,29.16c7.31-6.45,12.24-15.53,14.45-27.36-25.2,10.27-33.29,13.81-44.68,39.17,12.42-1.21,22.63-5.11,30.24-11.82Z"/>
  <path class="cls-6" d="m243.77,535.53c-3.42-3.86-6.48-8.01-9.21-12.41-8.4-13.58-10.62-29.66-16.24-45.91,2,4.72,16.79,39.72,19.4,43.95,2.61,4.23,5.55,8.2,8.83,11.9l-2.78,2.46Z"/>
  <path class="cls-6" d="m211.89,453.19c-4.77,13.49-5.07,25.75-1.34,36.71,3.87,11.37,12.11,21.38,24.23,29.9,3.27-32.92-2.94-41.14-22.89-66.61h0Zm-3.69,37.5c-4.11-12.06-3.57-25.58,2.14-40.45l.78-2.04,1.35,1.72.91,1.16c21.21,27.07,27.52,35.13,23.65,71.05l-.22,2.04-1.7-1.14c-13.51-9.08-22.67-19.91-26.91-32.34Z"/>
  <path class="cls-6" d="m247.79,551.21c3.93-3.78,7.42-7.92,10.49-12.39,9.89-14.4,16.43-32.08,23.92-47.8-2.38,5.35-17.65,45.23-20.85,49.9-3.22,4.68-6.87,9.02-10.99,12.98l-2.58-2.68Z"/>
  <path class="cls-6" d="m286.66,471c5.08,14.02,5.35,26.7,1.28,37.92-4.19,11.57-12.96,21.54-25.76,29.8l-1.73,1.11-.18-2.05c-2.99-33.69,3.06-41.11,23.39-66.08l.87-1.07,1.38-1.7.75,2.06h0Zm-1.05,37.08c3.66-10.12,3.61-21.53-.56-34.15-18.98,23.31-24.91,30.92-22.48,61.56,11.4-7.73,19.23-16.9,23.04-27.41Z"/>
  <path class="cls-6" d="m277.71,621.75c-7.4-2.25-16.53-8.1-24.44-14.77-16.02-13.49-22.55-30.5-31.61-48.78,10.33,15.78,19.42,33.66,34,45.94,7.57,6.38,16.22,11.96,23.13,14.05l-1.08,3.56Z"/>
  <path class="cls-6" d="m209.46,527.7c-3.1,15.57-1.47,29.07,4.39,40.47,6.08,11.83,16.73,21.45,31.41,28.81-1.7-36.66-9.79-44.56-35.79-69.28h0Zm2.18,41.59c-6.39-12.44-7.97-27.22-4.14-44.29l.48-2.14,1.59,1.51,1.17,1.12c27.4,26.04,35.55,33.79,37.09,73.47l.08,2.05-1.85-.88c-16.13-7.71-27.82-18-34.41-30.83Z"/>
  <path class="cls-6" d="m274.39,612.59c2.15-4.09,3.99-8.34,5.53-12.73,5.77-16.43,7.76-34.59,11.01-51.65-1.64,17.66-1.58,36.01-7.5,52.87-1.61,4.58-3.52,8.99-5.75,13.24l-3.29-1.73Z"/>
  <path class="cls-6" d="m293.09,521.43c9.09,14.46,12.47,28.57,10.65,42.11-1.87,13.95-9.26,27.24-21.59,39.6l-1.45,1.46-.61-1.96c-11.54-37-6.57-46.79,10.13-79.69l.72-1.41.99-1.95,1.17,1.85h0Zm8.19,41.78c1.66-12.37-1.24-25.29-9.14-38.58-15.81,31.15-20.67,41.06-10.3,75.27,11.07-11.54,17.71-23.85,19.44-36.69Z"/>
  <path class="cls-6" d="m333.48,674.68c-4.18,1.01-20.24,1.31-34.79-.76-26.09-3.72-38.82-22.37-57.07-39.83,18.33,14.92,33.39,32.7,57.6,36.15,14.12,2.01,29.48,1.78,33.39.83l.87,3.61Z"/>
  <path class="cls-6" d="m216.34,606.15c1.21,7.84,3.33,15.38,6.21,22.38,5.67,13.81,14.28,25.55,24.64,33.4,10.28,7.8,22.29,11.76,34.84,10.11,3.39-.44,6.83-1.3,10.28-2.6-11.63-17.59-19.73-28.67-30.39-37.72-10.59-9-23.79-16.05-45.58-25.57h0Zm3.91,23.33c-3.22-7.85-5.52-16.35-6.68-25.19l-.28-2.17,2,.87c23.25,10.08,37.1,17.39,48.23,26.84,11.14,9.46,19.47,20.99,31.7,39.53l.83,1.26-1.39.57c-4.13,1.7-8.25,2.78-12.31,3.32-13.24,1.74-25.87-2.42-36.66-10.6-10.71-8.12-19.6-20.22-25.43-34.43Z"/>
  <path class="cls-6" d="m329.02,671.65c-.05-3.92-.34-7.85-.88-11.8-2.01-14.86-6.62-29.68-10.15-44.23,5.22,14.34,11.78,28.53,13.84,43.74.55,4.08.86,8.16.91,12.25l-3.71.04Z"/>
  <path class="cls-6" d="m306.06,585.61c14.49,9.05,23.68,20.28,27.95,33.26,4.4,13.37,3.54,28.55-2.16,45.05l-.67,1.94-1.4-1.5c-26.52-28.27-26.32-39.24-25.63-76.14l.03-1.58.04-2.19,1.85,1.16h0Zm25.59,34.02c-3.9-11.86-12.14-22.22-25.05-30.73-.64,34.93-.69,45.97,23.56,72.23,4.92-15.21,5.54-29.19,1.49-41.5Z"/>
  <path class="cls-6" d="m412.21,712.87c-2.38.38-5.25.92-8.42,1.51-9.99,1.88-22.98,4.32-35.95,4.57-21.21.42-42.17-7.81-62.41-13.3,20.16,3.65,41.98,10.03,62.57,9.58,12.59-.28,25.32-2.67,35.11-4.51,3.15-.59,6-1.13,8.53-1.53l.58,3.67Z"/>
  <path class="cls-6" d="m266.66,693.06c12.84,16.69,27.74,26.81,44.21,30.81,17.08,4.15,35.9,1.75,55.95-6.66-38.23-30.19-52.81-28.79-100.15-24.15h0Zm43.62,33.22c-17.61-4.28-33.44-15.27-46.94-33.5l-1.3-1.76,2.18-.21,2.1-.2c48.86-4.79,63.39-6.22,103.66,25.96l1.6,1.28-1.88.82c-21.25,9.29-41.26,12.03-59.42,7.61Z"/>
  <path class="cls-6" d="m417.53,713.4c-1.88-4.07-4.02-8-6.4-11.8-8.27-13.21-18.58-25.55-27.83-38.08,10.75,11.61,22.54,22.63,30.98,36.11,2.49,3.98,4.71,8.04,6.63,12.21l-3.38,1.56Z"/>
  <path class="cls-6" d="m354.68,637.3c18.61,2.42,32.92,9.44,43.11,20.46,10.51,11.36,16.58,26.92,18.42,46.01l.2,2.04-1.9-.78c-39.43-16.15-44.24-27.21-60.42-64.42l-.69-1.59-.87-2.01,2.17.28h0Zm41.29,22.14c-9.39-10.15-22.48-16.78-39.43-19.37,15.45,35.53,20.39,46.6,56.98,61.88-2.01-17.61-7.81-31.97-17.55-42.51Z"/>
  <path class="cls-2" d="m500.15,762.36h20.24c6.24-37.41-90.49-49.32-122.62-60.08-66.82-22.36-114.77-68.53-137.1-123.1-21.39-52.29-16.82-118.58,3.98-170.63,19.84-49.63,58.28-94.11,118.69-122.7-53.37,19.46-98.63,64.24-121.96,119.55-18.39,43.6-23.67,99.71-14.67,146.09,10.88,56.03,47.6,115.72,148.05,156.35,26.2,10.6,111.92,26.86,105.38,54.52Z"/>
  <path class="cls-6" d="m502.31,760.5h16.42c2.21-26.37-53.02-39.48-92.45-48.84-11.61-2.75-21.88-5.19-29.12-7.61-32.94-11.02-61.34-27.79-84.39-48.49-24.08-21.62-42.33-47.54-53.84-75.68-10.42-25.46-14.74-54.18-14.06-82.98.72-30.9,7.19-61.9,18.04-89.05,5.38-13.47,12.13-26.56,20.3-39.07-7.83,11.71-14.6,24.22-20.13,37.33-9.06,21.48-14.92,46.04-17.42,70.98-2.53,25.25-1.63,50.87,2.87,74.05,5.38,27.73,17.16,56.37,40.02,83.09,22.91,26.8,56.98,51.69,106.9,71.88,6.11,2.47,15.57,5.28,26.35,8.47,34.52,10.23,82.19,24.37,80.5,45.91h0Zm18.07,3.73h-22.59l.54-2.29c4.59-19.42-43.26-33.61-77.57-43.78-10.88-3.22-20.42-6.06-26.69-8.59-50.53-20.44-85.06-45.7-108.34-72.91-23.33-27.28-35.36-56.51-40.85-84.81-4.56-23.51-5.48-49.5-2.91-75.11,2.54-25.29,8.49-50.22,17.7-72.06,11.8-27.97,29.16-53.27,50.32-74.02,18.09-17.73,38.96-32.14,61.51-42.05,11.99-5.27,23.61-6.4,36.52-8.38-12.68,3.88-24.38,7.18-36.09,13.46-23.46,12.57-43.24,27.68-59.6,44.58-20.59,21.29-35.76,45.44-45.97,70.98-10.7,26.76-17.07,57.3-17.78,87.73-.66,28.32,3.57,56.54,13.79,81.5,11.29,27.61,29.22,53.05,52.89,74.31,22.69,20.37,50.64,36.88,83.08,47.73,6.97,2.33,17.21,4.76,28.8,7.51,41.6,9.87,100.22,23.78,95.07,54.63l-.26,1.56h-1.58Z"/>
  <path class="cls-6" d="m429.96,273.73c-7.31,11.53-16.35,18.81-26.76,22.15-10.72,3.44-22.85,2.67-35.99-1.98l-1.94-.68,1.51-1.4c22.72-21.01,31.47-20.78,60.9-20.03l1.26.03,2.19.06-1.17,1.85h0Zm-27.51,19.79c9.28-2.98,17.44-9.32,24.2-19.27-27.21-.7-36.03-.69-56.64,17.98,11.87,3.87,22.79,4.39,32.44,1.29Z"/>
</svg>